<svg width="130" height="129" viewBox="0 0 130 129" fill="none" xmlns="http://www.w3.org/2000/svg">
<path d="M64.0053 126.638C98.198 126.638 125.917 99.0134 125.917 64.9365C125.917 30.8597 98.198 3.23486 64.0053 3.23486C29.8125 3.23486 2.09375 30.8597 2.09375 64.9365C2.09375 99.0134 29.8125 126.638 64.0053 126.638Z" fill="white"/>
<path d="M34.7182 70.014C39.8106 75.2927 44.9365 80.4712 50.029 85.75C50.9335 86.6186 52.3742 86.6186 53.2787 85.75C66.9144 72.6199 80.6505 59.3897 94.2862 46.2596C96.4304 44.2216 93.1806 40.8807 91.0364 43.0189C77.3673 56.1489 63.6646 69.279 50.029 82.5092H53.2787C48.1528 77.2305 43.0604 72.052 37.968 66.7732C35.8238 64.635 32.574 67.8757 34.7182 70.014Z" fill="#5EBB4C" stroke="#5EBB4C" stroke-width="2"/>
<path d="M124.424 64.3754C124.123 89.2656 108.544 112.084 84.8909 120.604C61.3384 129.023 34.4357 121.807 18.3878 102.663C2.23943 83.2518 0.0952557 55.0206 13.0944 33.4713C26.0935 12.0223 51.9576 0.629535 76.5487 5.70782C104.289 11.5545 124.123 36.2444 124.424 64.3754C124.424 67.3488 129.048 67.3488 129.048 64.3754C128.78 37.5473 112.062 13.3252 86.7336 3.87028C61.2379 -5.55127 31.4539 2.66753 14.401 23.7491C-2.58497 44.5634 -4.79617 74.5319 9.10751 97.5512C22.9442 120.504 50.2155 132.531 76.5487 127.62C106.869 121.974 128.78 94.8784 129.048 64.3419C129.148 61.3017 124.491 61.3017 124.424 64.3754Z" fill="#5EBB4C"/>
</svg>
