<svg width="878" height="344" viewBox="0 0 878 344" fill="none" xmlns="http://www.w3.org/2000/svg">
<path opacity="0.998" d="M843.12 235.128C840.166 234.411 837.213 234.093 834.18 234.093H679.173C664.327 230.193 653.232 215.467 653.232 198.036C653.232 179.888 665.205 164.685 680.929 161.581H717.486C719.721 161.581 721.956 161.342 724.19 160.944C744.863 157.362 760.827 137.622 760.827 113.902C760.827 87.7152 741.351 66.2241 717.486 66.2241H100.332C76.4659 66.2241 56.9902 87.7152 56.9902 113.902C56.9902 136.747 71.8364 156.009 91.3919 160.546C94.3451 161.262 97.2984 161.581 100.332 161.581H255.338C270.185 165.481 281.279 180.206 281.279 197.638C281.279 215.786 269.307 230.989 253.582 234.093H217.026C214.791 234.093 212.556 234.332 210.401 234.73C189.728 238.312 173.764 258.052 173.764 281.771C173.764 307.958 193.24 329.45 217.106 329.45H834.26C858.045 329.45 877.601 307.958 877.601 281.771C877.521 258.847 862.675 239.665 843.12 235.128Z" fill="#C2E7F5"/>
<path d="M213.979 1.98999V37.5696" stroke="#232020" stroke-width="2" stroke-miterlimit="10" stroke-linecap="round"/>
<path d="M231.856 19.7402H196.178" stroke="#232020" stroke-width="2" stroke-miterlimit="10" stroke-linecap="round"/>
<path d="M169.933 198.593H70.2402" stroke="#232020" stroke-width="2" stroke-miterlimit="10" stroke-linecap="round"/>
<path d="M21.2323 198.593H1.99609" stroke="#232020" stroke-width="2" stroke-miterlimit="10" stroke-linecap="round"/>
<path d="M807.736 161.97V197.549" stroke="#232020" stroke-width="2" stroke-miterlimit="10" stroke-linecap="round"/>
<path d="M825.616 179.72H789.936" stroke="#232020" stroke-width="2" stroke-miterlimit="10" stroke-linecap="round"/>
<path d="M811.671 20.218H711.979" stroke="#232020" stroke-width="2" stroke-miterlimit="10" stroke-linecap="round"/>
<path d="M867.943 20.218H848.707" stroke="#232020" stroke-width="2" stroke-miterlimit="10" stroke-linecap="round"/>
<path d="M439.648 343.993C524.771 343.993 593.777 275.179 593.777 190.293C593.777 105.406 524.771 36.592 439.648 36.592C354.526 36.592 285.52 105.406 285.52 190.293C285.52 275.179 354.526 343.993 439.648 343.993Z" fill="white"/>
<path d="M368.238 203.688C380.371 216.264 392.583 228.602 404.715 241.178C406.87 243.248 410.302 243.248 412.458 241.178C444.944 209.897 477.669 178.377 510.155 147.095C515.263 142.24 507.521 134.28 502.413 139.374C469.847 170.656 437.201 201.937 404.715 233.457H412.458C400.245 220.881 388.113 208.544 375.981 195.967C370.872 190.873 363.13 198.594 368.238 203.688Z" fill="#5EBB4C" stroke="#5EBB4C" stroke-width="2"/>
<path d="M581.964 190.257C581.245 249.556 544.13 303.92 487.778 324.217C431.666 344.276 367.572 327.083 329.339 281.474C290.867 235.228 285.758 167.97 316.728 116.63C347.697 65.5289 409.317 38.3865 467.903 50.4852C533.993 64.4146 581.245 123.236 581.964 190.257C581.964 197.341 592.978 197.341 592.978 190.257C592.34 126.341 552.511 68.6332 492.168 46.1074C431.426 23.6612 360.468 43.2419 319.841 93.4673C279.373 143.056 274.105 214.454 307.229 269.296C340.194 323.978 405.166 352.633 467.903 340.932C540.139 327.481 592.34 262.928 592.978 190.177C593.218 182.934 582.123 182.934 581.964 190.257Z" fill="#5EBB4C"/>
</svg>
