<svg width="116" height="116" viewBox="0 0 116 116" fill="none" xmlns="http://www.w3.org/2000/svg">
<path fill-rule="evenodd" clip-rule="evenodd" d="M58.0612 5.84156C29.2211 5.84156 5.84156 29.2211 5.84156 58.0612C5.84156 86.9014 29.2211 110.281 58.0612 110.281C86.9014 110.281 110.281 86.9014 110.281 58.0612C110.281 29.2211 86.9014 5.84156 58.0612 5.84156ZM2 58.0612C2 27.0995 27.0995 2 58.0612 2C89.023 2 114.122 27.0995 114.122 58.0612C114.122 89.023 89.023 114.122 58.0612 114.122C27.0995 114.122 2 89.023 2 58.0612Z" fill="#F7901E" stroke="#FF9104" stroke-width="3"/>
<path d="M61.3366 86.9183C61.3366 88.8061 59.8061 90.3366 57.9183 90.3366C56.0304 90.3366 54.5 88.8061 54.5 86.9183C54.5 85.0304 56.0304 83.5 57.9183 83.5C59.8061 83.5 61.3366 85.0304 61.3366 86.9183Z" fill="#F7901E" stroke="#FF9104"/>
<path fill-rule="evenodd" clip-rule="evenodd" d="M57.9183 83.6679C56.1231 83.6679 54.6679 85.1231 54.6679 86.9183C54.6679 88.7134 56.1231 90.1687 57.9183 90.1687C59.7134 90.1687 61.1687 88.7134 61.1687 86.9183C61.1687 85.1231 59.7134 83.6679 57.9183 83.6679ZM54 86.9183C54 84.7543 55.7543 83 57.9183 83C60.0823 83 61.8366 84.7543 61.8366 86.9183C61.8366 89.0823 60.0823 90.8366 57.9183 90.8366C55.7543 90.8366 54 89.0823 54 86.9183Z" fill="#F7901E" stroke="#FF9104" stroke-width="3"/>
<path d="M57.877 22.0786C59.26 22.0786 60.3868 23.2055 60.3868 24.5884V71.6348C60.3868 73.0178 59.26 74.1446 57.877 74.1446C56.494 74.1446 55.3672 73.0178 55.3672 71.6348V24.5884C55.3928 23.2055 56.494 22.0786 57.877 22.0786Z" fill="#F7901E" stroke="#FF9104" stroke-width="3"/>
</svg>
