<svg width="165" height="210" viewBox="0 0 165 210" fill="none" xmlns="http://www.w3.org/2000/svg">
<path d="M0.675781 209.522L3.10953 204.183L51.0899 172.196L98.6168 166.211H104.881L164.612 183.485L104.881 209.522H0.675781Z" fill="white"/>
<path d="M47.2719 174.276L37.6203 115.479L91.8199 106.58L101.472 165.377L118.812 170.082C118.812 170.082 119.027 195.084 79.1034 202.182C39.1796 209.279 31.168 185.702 31.168 185.702L47.2719 174.276Z" fill="#E7CACA"/>
<path opacity="0.088" d="M94.8889 125.185C94.8889 125.185 93.9749 148.279 74.2146 154.166C51.4432 160.941 40.7969 134.648 40.7969 134.648C40.7969 134.648 53.1101 145.348 69.3484 142.713C87.4419 139.756 94.8889 125.185 94.8889 125.185Z" fill="#111E34"/>
<path d="M29.957 20.4416C29.957 20.4416 39.6087 -3.45893 72.0585 0.466245C94.9643 3.23537 102.6 21.9203 106.659 30.4158C108.218 33.6689 108.891 37.2714 108.649 40.8471L104.186 80.9053L66.1708 29.8781L34.8769 35.5239L29.957 20.4416Z" fill="#111E34"/>
<path d="M104.157 80.9052C104.157 80.9052 107.625 73.942 116.416 76.3348C125.208 78.7275 123.433 99.6976 110.959 103.569C110.959 103.569 106.496 105.021 102.598 102.252C102.625 102.252 104.238 86.7123 104.157 80.9052Z" fill="#DAB3B2"/>
<path d="M115.482 83.7495C115.482 83.7495 108.143 82.0826 104.137 93.0516" stroke="#141414" stroke-width="0.698" stroke-linecap="round" stroke-linejoin="round"/>
<path d="M17.3473 89.5353C17.3473 89.5353 12.5887 83.4055 4.41572 87.4651C-3.75724 91.5247 2.13052 111.742 15.1158 113.113C15.1158 113.113 19.7669 113.651 23.0468 110.183C23.0468 110.156 18.4227 95.2617 17.3473 89.5353Z" fill="#DAB3B2"/>
<path d="M6.82812 94.5725C6.82812 94.5725 13.7106 91.5076 19.7866 101.455" stroke="#141414" stroke-width="0.698" stroke-linecap="round" stroke-linejoin="round"/>
<path d="M103.079 61.2788C104.316 73.6995 105.687 99.8046 99.5839 115.962C93.8575 131.152 84.8242 138.599 69.3117 140.616C53.7993 142.632 39.6041 139.325 28.447 121.447C17.2898 103.568 14.44 70.312 14.44 70.312C14.44 70.312 10.0309 25.9523 53.8799 21.5969C100.041 16.9996 103.079 61.2788 103.079 61.2788Z" fill="#E7CACA"/>
<path d="M17.3445 89.5353L5.59586 51.359C4.81621 48.2403 4.97751 44.9604 5.99913 41.8955C8.63384 34.2872 16.6724 17.2154 29.9534 20.4415L34.8733 35.5239C34.8733 35.5239 18.9307 40.4169 14.5216 62.3548L17.3445 89.5353Z" fill="#111E34"/>
<path d="M24.8477 33.454C24.8477 33.454 54.152 62.5163 105.959 54.209C105.959 54.209 97.2751 17.108 72.9175 16.8392C48.56 16.5703 29.4987 29.2062 29.4987 29.2062L24.8477 33.454Z" fill="#111E34"/>
<path d="M34.8705 35.5233C34.8705 35.5233 29.7086 53.4016 14.1961 67.8387C14.1961 67.8387 7.17921 32.8348 34.8705 35.5233Z" fill="#111E34"/>
<path d="M47.352 174.491L3.44922 203.983" stroke="#707071"/>
<path d="M156.742 181.213L101.117 165.351" stroke="#707071"/>
</svg>
