<svg width="362" height="245" viewBox="0 0 362 245" fill="none" xmlns="http://www.w3.org/2000/svg">
<path d="M22.8232 0.00267656L339.258 0.0399199C351.793 0.0413953 361.998 10.2912 361.996 22.8791L361.973 221.334C361.972 233.922 351.765 244.169 339.229 244.167L22.7947 244.13C10.2593 244.129 0.0547338 233.879 0.056203 221.291L0.0793659 22.8365C0.0808351 10.2486 10.2878 0.00120119 22.8232 0.00267656Z" fill="#ECECEC"/>
<path d="M171.233 143.34L169.292 143.339L169.285 204.329L171.226 204.33L171.233 143.34Z" fill="#9E9E9E"/>
<path d="M167.966 143.339L164.416 143.339L164.409 204.329L167.958 204.329L167.966 143.339Z" fill="#9E9E9E"/>
<path d="M327.358 143.358L326.415 143.358L326.408 204.348L327.351 204.348L327.358 143.358Z" fill="#9E9E9E"/>
<path d="M331.479 143.358L327.93 143.358L327.922 204.348L331.472 204.349L331.479 143.358Z" fill="#9E9E9E"/>
<path d="M325.095 143.358L321.545 143.357L321.538 204.347L325.088 204.348L325.095 143.358Z" fill="#9E9E9E"/>
<path d="M176.477 189.691L174.536 189.691L174.535 192.142L176.477 192.142L176.477 189.691Z" fill="#9E9E9E"/>
<path d="M180.303 201.945L178.361 201.945L178.361 204.396L180.302 204.396L180.303 201.945Z" fill="#9E9E9E"/>
<path d="M176.476 197.043L174.535 197.043L174.534 199.494L176.476 199.494L176.476 197.043Z" fill="#9E9E9E"/>
<path d="M174.534 201.944L172.593 201.944L172.593 204.395L174.534 204.395L174.534 201.944Z" fill="#9E9E9E"/>
<path d="M176.476 199.494L174.534 199.494L174.534 201.944L176.475 201.945L176.476 199.494Z" fill="#9E9E9E"/>
<path d="M176.475 201.945L174.534 201.944L174.534 204.395L176.475 204.395L176.475 201.945Z" fill="#9E9E9E"/>
<path d="M203.382 150.594L201.441 150.593L201.441 153.044L203.382 153.044L203.382 150.594Z" fill="#9E9E9E"/>
<path d="M182.251 143.239L180.309 143.239L180.309 145.689L182.25 145.69L182.251 143.239Z" fill="#9E9E9E"/>
<path d="M178.368 143.238L176.427 143.238L176.426 145.689L178.368 145.689L178.368 143.238Z" fill="#9E9E9E"/>
<path d="M180.309 143.239L178.368 143.238L178.368 145.689L180.309 145.689L180.309 143.239Z" fill="#9E9E9E"/>
<path d="M186.078 143.239L184.137 143.239L184.136 145.69L186.078 145.69L186.078 143.239Z" fill="#9E9E9E"/>
<path d="M188.019 143.24L186.078 143.239L186.078 145.69L188.019 145.69L188.019 143.24Z" fill="#9E9E9E"/>
<path d="M205.325 143.242L203.383 143.241L203.383 145.692L205.324 145.692L205.325 143.242Z" fill="#9E9E9E"/>
<path d="M203.383 145.692L201.442 145.692L201.441 148.143L203.383 148.143L203.383 145.692Z" fill="#9E9E9E"/>
<path d="M188.019 145.69L186.078 145.69L186.078 148.141L188.019 148.141L188.019 145.69Z" fill="#9E9E9E"/>
<path d="M189.96 145.691L188.019 145.69L188.019 148.141L189.96 148.141L189.96 145.691Z" fill="#9E9E9E"/>
<path d="M191.846 145.691L189.905 145.691L189.905 148.141L191.846 148.142L191.846 145.691Z" fill="#9E9E9E"/>
<path d="M193.788 145.691L191.846 145.691L191.846 148.142L193.787 148.142L193.788 145.691Z" fill="#9E9E9E"/>
<path d="M197.615 145.691L195.673 145.691L195.673 148.142L197.614 148.142L197.615 145.691Z" fill="#9E9E9E"/>
<path d="M197.615 143.241L195.674 143.24L195.673 145.691L197.615 145.691L197.615 143.241Z" fill="#9E9E9E"/>
<path d="M184.136 148.141L182.195 148.14L182.195 150.591L184.136 150.591L184.136 148.141Z" fill="#9E9E9E"/>
<path d="M188.019 148.141L186.078 148.141L186.077 150.592L188.018 150.592L188.019 148.141Z" fill="#9E9E9E"/>
<path d="M191.846 148.142L189.905 148.141L189.904 150.592L191.846 150.592L191.846 148.142Z" fill="#9E9E9E"/>
<path d="M195.729 148.142L193.787 148.142L193.787 150.592L195.728 150.593L195.729 148.142Z" fill="#9E9E9E"/>
<path d="M197.614 148.142L195.673 148.142L195.673 150.593L197.614 150.593L197.614 148.142Z" fill="#9E9E9E"/>
<path d="M205.324 148.143L203.383 148.143L203.382 150.594L205.324 150.594L205.324 148.143Z" fill="#9E9E9E"/>
<path d="M203.378 187.299L201.437 187.299L201.437 189.75L203.378 189.75L203.378 187.299Z" fill="#9E9E9E"/>
<path d="M205.32 179.947L203.379 179.947L203.379 182.398L205.32 182.398L205.32 179.947Z" fill="#9E9E9E"/>
<path d="M203.379 182.398L201.437 182.397L201.437 184.848L203.378 184.848L203.379 182.398Z" fill="#9E9E9E"/>
<path d="M205.32 184.849L203.378 184.848L203.378 187.299L205.319 187.299L205.32 184.849Z" fill="#9E9E9E"/>
<path d="M207.262 179.947L205.32 179.947L205.32 182.398L207.261 182.398L207.262 179.947Z" fill="#9E9E9E"/>
<path d="M209.148 172.651L207.207 172.651L207.207 175.101L209.148 175.102L209.148 172.651Z" fill="#9E9E9E"/>
<path d="M207.262 175.102L205.321 175.101L205.321 177.552L207.262 177.552L207.262 175.102Z" fill="#9E9E9E"/>
<path d="M209.148 177.497L207.206 177.497L207.206 179.947L209.147 179.948L209.148 177.497Z" fill="#9E9E9E"/>
<path d="M205.322 165.298L203.381 165.298L203.381 167.749L205.322 167.749L205.322 165.298Z" fill="#9E9E9E"/>
<path d="M207.264 162.848L205.322 162.848L205.322 165.298L207.263 165.299L207.264 162.848Z" fill="#9E9E9E"/>
<path d="M186.077 150.592L184.136 150.591L184.136 153.042L186.077 153.042L186.077 150.592Z" fill="#9E9E9E"/>
<path d="M182.25 148.14L180.309 148.14L180.309 150.591L182.25 150.591L182.25 148.14Z" fill="#9E9E9E"/>
<path d="M191.846 150.592L189.904 150.592L189.904 153.043L191.845 153.043L191.846 150.592Z" fill="#9E9E9E"/>
<path d="M195.728 150.593L193.787 150.592L193.787 153.043L195.728 153.043L195.728 150.593Z" fill="#9E9E9E"/>
<path d="M180.309 145.689L178.368 145.689L178.367 148.14L180.309 148.14L180.309 145.689Z" fill="#9E9E9E"/>
<path d="M186.077 153.042L184.136 153.042L184.135 155.493L186.077 155.493L186.077 153.042Z" fill="#9E9E9E"/>
<path d="M188.018 153.043L186.077 153.042L186.077 155.493L188.018 155.493L188.018 153.043Z" fill="#9E9E9E"/>
<path d="M189.96 153.043L188.018 153.043L188.018 155.493L189.959 155.494L189.96 153.043Z" fill="#9E9E9E"/>
<path d="M197.614 153.044L195.673 153.043L195.672 155.494L197.614 155.494L197.614 153.044Z" fill="#9E9E9E"/>
<path d="M180.308 152.93L178.367 152.93L178.367 155.381L180.308 155.381L180.308 152.93Z" fill="#9E9E9E"/>
<path d="M182.25 150.591L180.309 150.591L180.308 153.042L182.25 153.042L182.25 150.591Z" fill="#9E9E9E"/>
<path d="M188.018 155.493L186.077 155.493L186.076 157.944L188.018 157.944L188.018 155.493Z" fill="#9E9E9E"/>
<path d="M201.496 155.495L199.555 155.495L199.555 157.945L201.496 157.946L201.496 155.495Z" fill="#9E9E9E"/>
<path d="M174.541 143.238L172.6 143.238L172.599 145.689L174.541 145.689L174.541 143.238Z" fill="#9E9E9E"/>
<path d="M176.482 143.238L174.541 143.238L174.541 145.689L176.482 145.689L176.482 143.238Z" fill="#9E9E9E"/>
<path d="M176.482 145.689L174.541 145.689L174.54 148.14L176.482 148.14L176.482 145.689Z" fill="#9E9E9E"/>
<path d="M174.54 155.492L172.598 155.491L172.598 157.942L174.539 157.942L174.54 155.492Z" fill="#9E9E9E"/>
<path d="M176.481 152.93L174.54 152.93L174.54 155.38L176.481 155.381L176.481 152.93Z" fill="#9E9E9E"/>
<path d="M178.367 152.93L176.426 152.93L176.425 155.381L178.367 155.381L178.367 152.93Z" fill="#9E9E9E"/>
<path d="M182.249 157.943L180.308 157.943L180.307 160.394L182.249 160.394L182.249 157.943Z" fill="#9E9E9E"/>
<path d="M186.076 157.944L184.135 157.944L184.135 160.394L186.076 160.395L186.076 157.944Z" fill="#9E9E9E"/>
<path d="M189.959 157.944L188.018 157.944L188.017 160.395L189.959 160.395L189.959 157.944Z" fill="#9E9E9E"/>
<path d="M193.786 157.945L191.845 157.945L191.844 160.395L193.786 160.395L193.786 157.945Z" fill="#9E9E9E"/>
<path d="M201.496 160.341L199.554 160.34L199.554 162.791L201.495 162.791L201.496 160.341Z" fill="#9E9E9E"/>
<path d="M201.496 157.946L199.555 157.945L199.554 160.396L201.496 160.396L201.496 157.946Z" fill="#9E9E9E"/>
<path d="M182.249 160.338L180.307 160.338L180.307 162.789L182.248 162.789L182.249 160.338Z" fill="#9E9E9E"/>
<path d="M184.135 160.339L182.193 160.338L182.193 162.789L184.134 162.789L184.135 160.339Z" fill="#9E9E9E"/>
<path d="M189.959 160.339L188.017 160.339L188.017 162.79L189.958 162.79L189.959 160.339Z" fill="#9E9E9E"/>
<path d="M191.844 160.34L189.903 160.339L189.903 162.79L191.844 162.79L191.844 160.34Z" fill="#9E9E9E"/>
<path d="M174.539 162.788L172.597 162.788L172.597 165.239L174.538 165.239L174.539 162.788Z" fill="#9E9E9E"/>
<path d="M178.366 162.789L176.425 162.788L176.424 165.239L178.366 165.239L178.366 162.789Z" fill="#9E9E9E"/>
<path d="M184.134 162.789L182.193 162.789L182.193 165.24L184.134 165.24L184.134 162.789Z" fill="#9E9E9E"/>
<path d="M205.324 153.045L203.382 153.044L203.382 155.495L205.323 155.495L205.324 153.045Z" fill="#9E9E9E"/>
<path d="M209.151 153.045L207.209 153.045L207.209 155.496L209.15 155.496L209.151 153.045Z" fill="#9E9E9E"/>
<path d="M205.323 155.495L203.382 155.495L203.382 157.946L205.323 157.946L205.323 155.495Z" fill="#9E9E9E"/>
<path d="M207.265 155.496L205.323 155.495L205.323 157.946L207.264 157.946L207.265 155.496Z" fill="#9E9E9E"/>
<path d="M207.264 157.946L205.323 157.946L205.323 160.397L207.264 160.397L207.264 157.946Z" fill="#9E9E9E"/>
<path d="M189.958 162.79L188.017 162.79L188.017 165.241L189.958 165.241L189.958 162.79Z" fill="#9E9E9E"/>
<path d="M193.786 162.791L191.844 162.79L191.844 165.241L193.785 165.241L193.786 162.791Z" fill="#9E9E9E"/>
<path d="M201.495 165.242L199.554 165.242L199.553 167.693L201.495 167.693L201.495 165.242Z" fill="#9E9E9E"/>
<path d="M201.495 162.791L199.554 162.791L199.554 165.242L201.495 165.242L201.495 162.791Z" fill="#9E9E9E"/>
<path d="M174.538 165.239L172.597 165.239L172.597 167.69L174.538 167.69L174.538 165.239Z" fill="#9E9E9E"/>
<path d="M176.48 165.239L174.538 165.239L174.538 167.69L176.479 167.69L176.48 165.239Z" fill="#9E9E9E"/>
<path d="M180.307 165.24L178.366 165.239L178.365 167.69L180.307 167.69L180.307 165.24Z" fill="#9E9E9E"/>
<path d="M186.075 165.24L184.134 165.24L184.134 167.691L186.075 167.691L186.075 165.24Z" fill="#9E9E9E"/>
<path d="M191.844 165.241L189.903 165.241L189.902 167.692L191.844 167.692L191.844 165.241Z" fill="#9E9E9E"/>
<path d="M193.785 165.241L191.844 165.241L191.844 167.692L193.785 167.692L193.785 165.241Z" fill="#9E9E9E"/>
<path d="M195.727 165.242L193.785 165.241L193.785 167.692L195.726 167.692L195.727 165.242Z" fill="#9E9E9E"/>
<path d="M199.554 165.242L197.612 165.242L197.612 167.693L199.553 167.693L199.554 165.242Z" fill="#9E9E9E"/>
<path d="M182.25 152.931L180.308 152.93L180.308 155.381L182.249 155.381L182.25 152.931Z" fill="#9E9E9E"/>
<path d="M174.538 167.69L172.597 167.69L172.596 170.14L174.538 170.141L174.538 167.69Z" fill="#9E9E9E"/>
<path d="M178.365 167.69L176.424 167.69L176.424 170.141L178.365 170.141L178.365 167.69Z" fill="#9E9E9E"/>
<path d="M180.307 167.69L178.365 167.69L178.365 170.141L180.306 170.141L180.307 167.69Z" fill="#9E9E9E"/>
<path d="M182.248 167.691L180.307 167.69L180.306 170.141L182.248 170.141L182.248 167.691Z" fill="#9E9E9E"/>
<path d="M184.134 167.691L182.193 167.691L182.192 170.141L184.134 170.142L184.134 167.691Z" fill="#9E9E9E"/>
<path d="M189.958 167.692L188.017 167.691L188.016 170.142L189.958 170.142L189.958 167.692Z" fill="#9E9E9E"/>
<path d="M195.726 167.692L193.785 167.692L193.785 170.143L195.726 170.143L195.726 167.692Z" fill="#9E9E9E"/>
<path d="M197.612 167.693L195.671 167.692L195.67 170.143L197.612 170.143L197.612 167.693Z" fill="#9E9E9E"/>
<path d="M201.495 167.693L199.553 167.693L199.553 170.143L201.494 170.144L201.495 167.693Z" fill="#9E9E9E"/>
<path d="M180.306 170.141L178.365 170.141L178.365 172.592L180.306 172.592L180.306 170.141Z" fill="#9E9E9E"/>
<path d="M182.248 170.141L180.306 170.141L180.306 172.592L182.247 172.592L182.248 170.141Z" fill="#9E9E9E"/>
<path d="M191.843 170.087L189.902 170.087L189.902 172.537L191.843 172.538L191.843 170.087Z" fill="#9E9E9E"/>
<path d="M178.365 172.592L176.423 172.591L176.423 175.042L178.364 175.042L178.365 172.592Z" fill="#9E9E9E"/>
<path d="M182.247 172.592L180.306 172.592L180.306 175.043L182.247 175.043L182.247 172.592Z" fill="#9E9E9E"/>
<path d="M184.133 172.592L182.192 172.592L182.192 175.043L184.133 175.043L184.133 172.592Z" fill="#9E9E9E"/>
<path d="M186.075 172.593L184.133 172.592L184.133 175.043L186.074 175.043L186.075 172.593Z" fill="#9E9E9E"/>
<path d="M176.481 150.479L174.54 150.479L174.54 152.93L176.481 152.93L176.481 150.479Z" fill="#9E9E9E"/>
<path d="M195.726 172.594L193.784 172.593L193.784 175.044L195.725 175.044L195.726 172.594Z" fill="#9E9E9E"/>
<path d="M201.494 172.594L199.553 172.594L199.552 175.045L201.494 175.045L201.494 172.594Z" fill="#9E9E9E"/>
<path d="M176.479 175.042L174.537 175.042L174.537 177.493L176.478 177.493L176.479 175.042Z" fill="#9E9E9E"/>
<path d="M180.306 175.043L178.364 175.042L178.364 177.493L180.305 177.493L180.306 175.043Z" fill="#9E9E9E"/>
<path d="M186.074 175.043L184.133 175.043L184.133 177.494L186.074 177.494L186.074 175.043Z" fill="#9E9E9E"/>
<path d="M189.957 175.044L188.016 175.044L188.015 177.494L189.957 177.495L189.957 175.044Z" fill="#9E9E9E"/>
<path d="M193.784 175.044L191.843 175.044L191.843 177.495L193.784 177.495L193.784 175.044Z" fill="#9E9E9E"/>
<path d="M195.725 175.044L193.784 175.044L193.784 177.495L195.725 177.495L195.725 175.044Z" fill="#9E9E9E"/>
<path d="M197.611 175.045L195.67 175.044L195.67 177.495L197.611 177.495L197.611 175.045Z" fill="#9E9E9E"/>
<path d="M199.552 175.045L197.611 175.045L197.611 177.495L199.552 177.496L199.552 175.045Z" fill="#9E9E9E"/>
<path d="M174.538 170.085L172.597 170.085L172.596 172.535L174.538 172.536L174.538 170.085Z" fill="#9E9E9E"/>
<path d="M174.537 177.493L172.596 177.492L172.595 179.943L174.537 179.943L174.537 177.493Z" fill="#9E9E9E"/>
<path d="M176.478 177.493L174.537 177.493L174.537 179.943L176.478 179.944L176.478 177.493Z" fill="#9E9E9E"/>
<path d="M178.364 177.493L176.423 177.493L176.422 179.944L178.364 179.944L178.364 177.493Z" fill="#9E9E9E"/>
<path d="M180.305 177.493L178.364 177.493L178.364 179.944L180.305 179.944L180.305 177.493Z" fill="#9E9E9E"/>
<path d="M184.133 177.494L182.191 177.494L182.191 179.944L184.132 179.945L184.133 177.494Z" fill="#9E9E9E"/>
<path d="M193.784 177.495L191.843 177.495L191.842 179.946L193.784 179.946L193.784 177.495Z" fill="#9E9E9E"/>
<path d="M195.725 177.495L193.784 177.495L193.784 179.946L195.725 179.946L195.725 177.495Z" fill="#9E9E9E"/>
<path d="M199.552 177.496L197.611 177.495L197.611 179.946L199.552 179.946L199.552 177.496Z" fill="#9E9E9E"/>
<path d="M201.494 177.496L199.552 177.496L199.552 179.946L201.493 179.947L201.494 177.496Z" fill="#9E9E9E"/>
<path d="M176.481 157.219L174.539 157.218L174.539 159.669L176.48 159.669L176.481 157.219Z" fill="#9E9E9E"/>
<path d="M176.478 179.944L174.537 179.943L174.536 182.394L176.478 182.394L176.478 179.944Z" fill="#9E9E9E"/>
<path d="M180.305 179.944L178.364 179.944L178.364 182.395L180.305 182.395L180.305 179.944Z" fill="#9E9E9E"/>
<path d="M184.132 179.945L182.191 179.944L182.191 182.395L184.132 182.395L184.132 179.945Z" fill="#9E9E9E"/>
<path d="M189.956 179.945L188.015 179.945L188.015 182.396L189.956 182.396L189.956 179.945Z" fill="#9E9E9E"/>
<path d="M193.784 179.946L191.842 179.946L191.842 182.396L193.783 182.397L193.784 179.946Z" fill="#9E9E9E"/>
<path d="M197.611 179.946L195.669 179.946L195.669 182.397L197.61 182.397L197.611 179.946Z" fill="#9E9E9E"/>
<path d="M199.552 179.946L197.611 179.946L197.61 182.397L199.552 182.397L199.552 179.946Z" fill="#9E9E9E"/>
<path d="M174.536 182.394L172.595 182.394L172.595 184.845L174.536 184.845L174.536 182.394Z" fill="#9E9E9E"/>
<path d="M178.364 182.395L176.422 182.394L176.422 184.845L178.363 184.845L178.364 182.395Z" fill="#9E9E9E"/>
<path d="M180.305 182.395L178.364 182.395L178.363 184.845L180.305 184.846L180.305 182.395Z" fill="#9E9E9E"/>
<path d="M186.074 182.396L184.132 182.395L184.132 184.846L186.073 184.846L186.074 182.396Z" fill="#9E9E9E"/>
<path d="M188.015 182.396L186.074 182.396L186.073 184.846L188.014 184.846L188.015 182.396Z" fill="#9E9E9E"/>
<path d="M189.956 182.396L188.015 182.396L188.014 184.846L189.956 184.847L189.956 182.396Z" fill="#9E9E9E"/>
<path d="M191.842 182.396L189.901 182.396L189.9 184.847L191.842 184.847L191.842 182.396Z" fill="#9E9E9E"/>
<path d="M195.725 182.397L193.783 182.397L193.783 184.847L195.724 184.847L195.725 182.397Z" fill="#9E9E9E"/>
<path d="M197.61 182.397L195.669 182.397L195.669 184.847L197.61 184.848L197.61 182.397Z" fill="#9E9E9E"/>
<path d="M199.552 182.397L197.61 182.397L197.61 184.848L199.551 184.848L199.552 182.397Z" fill="#9E9E9E"/>
<path d="M182.246 184.79L180.305 184.79L180.304 187.241L182.246 187.241L182.246 184.79Z" fill="#9E9E9E"/>
<path d="M184.132 184.79L182.191 184.79L182.19 187.241L184.132 187.241L184.132 184.79Z" fill="#9E9E9E"/>
<path d="M188.014 184.791L186.073 184.791L186.073 187.241L188.014 187.242L188.014 184.791Z" fill="#9E9E9E"/>
<path d="M180.305 184.79L178.363 184.79L178.363 187.24L180.304 187.241L180.305 184.79Z" fill="#9E9E9E"/>
<path d="M178.363 187.24L176.422 187.24L176.421 189.691L178.363 189.691L178.363 187.24Z" fill="#9E9E9E"/>
<path d="M178.363 189.691L176.421 189.691L176.421 192.142L178.362 192.142L178.363 189.691Z" fill="#9E9E9E"/>
<path d="M186.073 187.241L184.132 187.241L184.131 189.692L186.073 189.692L186.073 187.241Z" fill="#9E9E9E"/>
<path d="M189.956 187.242L188.014 187.242L188.014 189.692L189.955 189.693L189.956 187.242Z" fill="#9E9E9E"/>
<path d="M195.724 184.792L193.783 184.792L193.783 187.242L195.724 187.242L195.724 184.792Z" fill="#9E9E9E"/>
<path d="M199.551 189.694L197.609 189.693L197.609 192.144L199.55 192.144L199.551 189.694Z" fill="#9E9E9E"/>
<path d="M201.492 187.243L199.551 187.243L199.551 189.694L201.492 189.694L201.492 187.243Z" fill="#9E9E9E"/>
<path d="M188.014 189.692L186.073 189.692L186.072 192.143L188.014 192.143L188.014 189.692Z" fill="#9E9E9E"/>
<path d="M195.724 189.693L193.782 189.693L193.782 192.144L195.723 192.144L195.724 189.693Z" fill="#9E9E9E"/>
<path d="M197.609 189.693L195.668 189.693L195.668 192.144L197.609 192.144L197.609 189.693Z" fill="#9E9E9E"/>
<path d="M182.246 187.241L180.304 187.241L180.304 189.691L182.245 189.692L182.246 187.241Z" fill="#9E9E9E"/>
<path d="M182.245 192.142L180.304 192.142L180.303 194.593L182.245 194.593L182.245 192.142Z" fill="#9E9E9E"/>
<path d="M186.072 192.143L184.131 192.143L184.131 194.593L186.072 194.594L186.072 192.143Z" fill="#9E9E9E"/>
<path d="M188.014 192.143L186.072 192.143L186.072 194.594L188.013 194.594L188.014 192.143Z" fill="#9E9E9E"/>
<path d="M201.491 201.948L199.549 201.947L199.549 204.398L201.49 204.398L201.491 201.948Z" fill="#9E9E9E"/>
<path d="M193.782 192.144L191.841 192.144L191.841 194.594L193.782 194.594L193.782 192.144Z" fill="#9E9E9E"/>
<path d="M195.723 192.144L193.782 192.144L193.782 194.594L195.723 194.595L195.723 192.144Z" fill="#9E9E9E"/>
<path d="M197.609 192.144L195.668 192.144L195.668 194.595L197.609 194.595L197.609 192.144Z" fill="#9E9E9E"/>
<path d="M199.55 192.144L197.609 192.144L197.609 194.595L199.55 194.595L199.55 192.144Z" fill="#9E9E9E"/>
<path d="M201.492 192.145L199.55 192.144L199.55 194.595L201.492 194.595L201.492 192.145Z" fill="#9E9E9E"/>
<path d="M174.536 184.789L172.595 184.789L172.594 187.24L174.536 187.24L174.536 184.789Z" fill="#9E9E9E"/>
<path d="M182.245 194.593L180.303 194.593L180.303 197.044L182.244 197.044L182.245 194.593Z" fill="#9E9E9E"/>
<path d="M184.131 194.593L182.189 194.593L182.189 197.044L184.13 197.044L184.131 194.593Z" fill="#9E9E9E"/>
<path d="M191.841 192.144L189.9 192.143L189.899 194.594L191.841 194.594L191.841 192.144Z" fill="#9E9E9E"/>
<path d="M191.842 184.791L189.9 184.791L189.9 187.242L191.841 187.242L191.842 184.791Z" fill="#9E9E9E"/>
<path d="M201.492 194.595L199.55 194.595L199.55 197.046L201.491 197.046L201.492 194.595Z" fill="#9E9E9E"/>
<path d="M199.55 197.046L197.609 197.046L197.608 199.496L199.55 199.497L199.55 197.046Z" fill="#9E9E9E"/>
<path d="M201.493 184.792L199.551 184.792L199.551 187.243L201.492 187.243L201.493 184.792Z" fill="#9E9E9E"/>
<path d="M201.493 182.397L199.552 182.397L199.551 184.848L201.493 184.848L201.493 182.397Z" fill="#9E9E9E"/>
<path d="M184.13 197.044L182.189 197.044L182.189 199.495L184.13 199.495L184.13 197.044Z" fill="#9E9E9E"/>
<path d="M207.261 187.3L205.319 187.299L205.319 189.75L207.261 189.75L207.261 187.3Z" fill="#9E9E9E"/>
<path d="M207.261 189.75L205.319 189.75L205.319 192.201L207.26 192.201L207.261 189.75Z" fill="#9E9E9E"/>
<path d="M209.146 189.751L207.205 189.75L207.205 192.201L209.146 192.201L209.146 189.751Z" fill="#9E9E9E"/>
<path d="M209.146 192.201L207.205 192.201L207.204 194.652L209.146 194.652L209.146 192.201Z" fill="#9E9E9E"/>
<path d="M209.146 194.652L207.204 194.652L207.204 197.103L209.145 197.103L209.146 194.652Z" fill="#9E9E9E"/>
<path d="M209.149 165.243L207.208 165.243L207.208 167.694L209.149 167.694L209.149 165.243Z" fill="#9E9E9E"/>
<path d="M209.149 167.694L207.208 167.694L207.207 170.144L209.149 170.145L209.149 167.694Z" fill="#9E9E9E"/>
<path d="M209.149 170.145L207.207 170.144L207.207 172.595L209.148 172.595L209.149 170.145Z" fill="#9E9E9E"/>
<path d="M188.013 197.045L186.072 197.044L186.071 199.495L188.013 199.495L188.013 197.045Z" fill="#9E9E9E"/>
<path d="M191.84 197.045L189.899 197.045L189.899 199.496L191.84 199.496L191.84 197.045Z" fill="#9E9E9E"/>
<path d="M195.723 197.045L193.782 197.045L193.781 199.496L195.723 199.496L195.723 197.045Z" fill="#9E9E9E"/>
<path d="M201.491 197.046L199.55 197.046L199.55 199.497L201.491 199.497L201.491 197.046Z" fill="#9E9E9E"/>
<path d="M182.244 199.495L180.303 199.494L180.303 201.945L182.244 201.945L182.244 199.495Z" fill="#9E9E9E"/>
<path d="M186.071 199.495L184.13 199.495L184.13 201.946L186.071 201.946L186.071 199.495Z" fill="#9E9E9E"/>
<path d="M188.013 199.495L186.071 199.495L186.071 201.946L188.012 201.946L188.013 199.495Z" fill="#9E9E9E"/>
<path d="M193.781 199.496L191.84 199.496L191.84 201.946L193.781 201.947L193.781 199.496Z" fill="#9E9E9E"/>
<path d="M195.723 199.496L193.781 199.496L193.781 201.947L195.722 201.947L195.723 199.496Z" fill="#9E9E9E"/>
<path d="M178.361 201.945L176.42 201.945L176.42 204.395L178.361 204.396L178.361 201.945Z" fill="#9E9E9E"/>
<path d="M182.244 201.945L180.303 201.945L180.302 204.396L182.244 204.396L182.244 201.945Z" fill="#9E9E9E"/>
<path d="M184.13 201.946L182.189 201.945L182.188 204.396L184.13 204.396L184.13 201.946Z" fill="#9E9E9E"/>
<path d="M186.071 201.946L184.13 201.946L184.13 204.396L186.071 204.397L186.071 201.946Z" fill="#9E9E9E"/>
<path d="M189.954 201.946L188.012 201.946L188.012 204.397L189.954 204.397L189.954 201.946Z" fill="#9E9E9E"/>
<path d="M197.608 201.947L195.667 201.947L195.666 204.398L197.608 204.398L197.608 201.947Z" fill="#9E9E9E"/>
<path d="M199.549 201.947L197.608 201.947L197.608 204.398L199.549 204.398L199.549 201.947Z" fill="#9E9E9E"/>
<path d="M174.541 143.442L172.544 143.442L172.537 204.432L174.534 204.433L174.541 143.442Z" fill="#9E9E9E"/>
<path d="M214.887 189.696L212.946 189.695L212.946 192.146L214.887 192.146L214.887 189.696Z" fill="#9E9E9E"/>
<path d="M218.713 201.95L216.771 201.949L216.771 204.4L218.713 204.4L218.713 201.95Z" fill="#9E9E9E"/>
<path d="M214.886 197.048L212.945 197.048L212.945 199.498L214.886 199.498L214.886 197.048Z" fill="#9E9E9E"/>
<path d="M212.944 201.949L211.003 201.949L211.003 204.4L212.944 204.4L212.944 201.949Z" fill="#9E9E9E"/>
<path d="M214.886 199.498L212.945 199.498L212.944 201.949L214.886 201.949L214.886 199.498Z" fill="#9E9E9E"/>
<path d="M214.886 201.949L212.944 201.949L212.944 204.4L214.885 204.4L214.886 201.949Z" fill="#9E9E9E"/>
<path d="M241.793 150.598L239.851 150.598L239.851 153.049L241.792 153.049L241.793 150.598Z" fill="#9E9E9E"/>
<path d="M220.661 143.243L218.72 143.243L218.719 145.694L220.661 145.694L220.661 143.243Z" fill="#9E9E9E"/>
<path d="M216.778 143.243L214.837 143.243L214.837 145.693L216.778 145.694L216.778 143.243Z" fill="#9E9E9E"/>
<path d="M218.72 143.243L216.778 143.243L216.778 145.694L218.719 145.694L218.72 143.243Z" fill="#9E9E9E"/>
<path d="M224.488 143.244L222.547 143.244L222.547 145.694L224.488 145.695L224.488 143.244Z" fill="#9E9E9E"/>
<path d="M226.43 143.244L224.488 143.244L224.488 145.695L226.429 145.695L226.43 143.244Z" fill="#9E9E9E"/>
<path d="M243.735 143.246L241.794 143.246L241.793 145.697L243.735 145.697L243.735 143.246Z" fill="#9E9E9E"/>
<path d="M241.793 145.697L239.852 145.696L239.852 148.147L241.793 148.147L241.793 145.697Z" fill="#9E9E9E"/>
<path d="M226.429 145.695L224.488 145.695L224.488 148.145L226.429 148.146L226.429 145.695Z" fill="#9E9E9E"/>
<path d="M228.371 145.695L226.429 145.695L226.429 148.146L228.37 148.146L228.371 145.695Z" fill="#9E9E9E"/>
<path d="M230.257 145.695L228.315 145.695L228.315 148.146L230.256 148.146L230.257 145.695Z" fill="#9E9E9E"/>
<path d="M232.198 145.696L230.257 145.695L230.256 148.146L232.197 148.146L232.198 145.696Z" fill="#9E9E9E"/>
<path d="M236.025 145.696L234.084 145.696L234.083 148.146L236.025 148.147L236.025 145.696Z" fill="#9E9E9E"/>
<path d="M236.025 143.245L234.084 143.245L234.084 145.696L236.025 145.696L236.025 143.245Z" fill="#9E9E9E"/>
<path d="M222.547 148.145L220.605 148.145L220.605 150.596L222.546 150.596L222.547 148.145Z" fill="#9E9E9E"/>
<path d="M226.429 148.146L224.488 148.145L224.487 150.596L226.429 150.596L226.429 148.146Z" fill="#9E9E9E"/>
<path d="M230.256 148.146L228.315 148.146L228.315 150.597L230.256 150.597L230.256 148.146Z" fill="#9E9E9E"/>
<path d="M234.139 148.146L232.197 148.146L232.197 150.597L234.139 150.597L234.139 148.146Z" fill="#9E9E9E"/>
<path d="M236.025 148.147L234.083 148.146L234.083 150.597L236.024 150.597L236.025 148.147Z" fill="#9E9E9E"/>
<path d="M243.734 148.148L241.793 148.147L241.793 150.598L243.734 150.598L243.734 148.148Z" fill="#9E9E9E"/>
<path d="M243.734 155.388L241.792 155.388L241.792 157.839L243.733 157.839L243.734 155.388Z" fill="#9E9E9E"/>
<path d="M243.733 157.784L241.792 157.783L241.792 160.234L243.733 160.234L243.733 157.784Z" fill="#9E9E9E"/>
<path d="M241.792 160.234L239.85 160.234L239.85 162.685L241.791 162.685L241.792 160.234Z" fill="#9E9E9E"/>
<path d="M245.675 152.938L243.734 152.938L243.734 155.388L245.675 155.389L245.675 152.938Z" fill="#9E9E9E"/>
<path d="M241.789 187.304L239.847 187.303L239.847 189.754L241.788 189.754L241.789 187.304Z" fill="#9E9E9E"/>
<path d="M243.731 179.952L241.789 179.951L241.789 182.402L243.73 182.402L243.731 179.952Z" fill="#9E9E9E"/>
<path d="M241.789 182.402L239.848 182.402L239.848 184.853L241.789 184.853L241.789 182.402Z" fill="#9E9E9E"/>
<path d="M243.73 184.853L241.789 184.853L241.789 187.304L243.73 187.304L243.73 184.853Z" fill="#9E9E9E"/>
<path d="M245.672 179.952L243.731 179.952L243.73 182.402L245.672 182.403L245.672 179.952Z" fill="#9E9E9E"/>
<path d="M245.674 162.797L243.733 162.796L243.732 165.247L245.674 165.247L245.674 162.797Z" fill="#9E9E9E"/>
<path d="M245.673 175.106L243.731 175.106L243.731 177.557L245.672 177.557L245.673 175.106Z" fill="#9E9E9E"/>
<path d="M245.674 167.698L243.732 167.698L243.732 170.149L245.673 170.149L245.674 167.698Z" fill="#9E9E9E"/>
<path d="M224.487 150.596L222.546 150.596L222.546 153.047L224.487 153.047L224.487 150.596Z" fill="#9E9E9E"/>
<path d="M220.66 148.145L218.719 148.145L218.719 150.595L220.66 150.596L220.66 148.145Z" fill="#9E9E9E"/>
<path d="M230.256 150.597L228.315 150.597L228.314 153.047L230.256 153.048L230.256 150.597Z" fill="#9E9E9E"/>
<path d="M234.139 150.597L232.197 150.597L232.197 153.048L234.138 153.048L234.139 150.597Z" fill="#9E9E9E"/>
<path d="M218.719 145.694L216.778 145.694L216.778 148.144L218.719 148.145L218.719 145.694Z" fill="#9E9E9E"/>
<path d="M224.487 153.047L222.546 153.047L222.546 155.497L224.487 155.498L224.487 153.047Z" fill="#9E9E9E"/>
<path d="M226.429 153.047L224.487 153.047L224.487 155.498L226.428 155.498L226.429 153.047Z" fill="#9E9E9E"/>
<path d="M228.37 153.047L226.429 153.047L226.428 155.498L228.37 155.498L228.37 153.047Z" fill="#9E9E9E"/>
<path d="M236.024 153.048L234.083 153.048L234.083 155.499L236.024 155.499L236.024 153.048Z" fill="#9E9E9E"/>
<path d="M218.719 152.935L216.777 152.935L216.777 155.385L218.718 155.386L218.719 152.935Z" fill="#9E9E9E"/>
<path d="M220.66 150.596L218.719 150.595L218.719 153.046L220.66 153.046L220.66 150.596Z" fill="#9E9E9E"/>
<path d="M226.428 155.498L224.487 155.498L224.487 157.948L226.428 157.949L226.428 155.498Z" fill="#9E9E9E"/>
<path d="M239.906 155.499L237.965 155.499L237.965 157.95L239.906 157.95L239.906 155.499Z" fill="#9E9E9E"/>
<path d="M212.951 143.243L211.01 143.242L211.01 145.693L212.951 145.693L212.951 143.243Z" fill="#9E9E9E"/>
<path d="M214.893 143.243L212.951 143.243L212.951 145.693L214.892 145.693L214.893 143.243Z" fill="#9E9E9E"/>
<path d="M214.892 145.693L212.951 145.693L212.951 148.144L214.892 148.144L214.892 145.693Z" fill="#9E9E9E"/>
<path d="M212.95 155.496L211.009 155.496L211.008 157.947L212.95 157.947L212.95 155.496Z" fill="#9E9E9E"/>
<path d="M214.892 152.934L212.95 152.934L212.95 155.385L214.891 155.385L214.892 152.934Z" fill="#9E9E9E"/>
<path d="M216.777 152.935L214.836 152.934L214.836 155.385L216.777 155.385L216.777 152.935Z" fill="#9E9E9E"/>
<path d="M220.659 157.948L218.718 157.948L218.718 160.398L220.659 160.399L220.659 157.948Z" fill="#9E9E9E"/>
<path d="M224.487 157.948L222.545 157.948L222.545 160.399L224.486 160.399L224.487 157.948Z" fill="#9E9E9E"/>
<path d="M228.369 157.949L226.428 157.949L226.428 160.399L228.369 160.4L228.369 157.949Z" fill="#9E9E9E"/>
<path d="M232.196 157.949L230.255 157.949L230.255 160.4L232.196 160.4L232.196 157.949Z" fill="#9E9E9E"/>
<path d="M239.906 160.345L237.965 160.345L237.964 162.796L239.906 162.796L239.906 160.345Z" fill="#9E9E9E"/>
<path d="M239.906 157.95L237.965 157.95L237.965 160.401L239.906 160.401L239.906 157.95Z" fill="#9E9E9E"/>
<path d="M220.659 160.343L218.718 160.343L218.717 162.793L220.659 162.794L220.659 160.343Z" fill="#9E9E9E"/>
<path d="M222.545 160.343L220.604 160.343L220.603 162.794L222.545 162.794L222.545 160.343Z" fill="#9E9E9E"/>
<path d="M228.369 160.344L226.428 160.344L226.427 162.794L228.369 162.795L228.369 160.344Z" fill="#9E9E9E"/>
<path d="M230.255 160.344L228.313 160.344L228.313 162.795L230.255 162.795L230.255 160.344Z" fill="#9E9E9E"/>
<path d="M212.949 162.793L211.008 162.793L211.007 165.243L212.949 165.244L212.949 162.793Z" fill="#9E9E9E"/>
<path d="M216.776 162.793L214.835 162.793L214.834 165.244L216.776 165.244L216.776 162.793Z" fill="#9E9E9E"/>
<path d="M222.545 162.794L220.603 162.794L220.603 165.244L222.544 165.245L222.545 162.794Z" fill="#9E9E9E"/>
<path d="M228.369 162.795L226.427 162.794L226.427 165.245L228.368 165.245L228.369 162.795Z" fill="#9E9E9E"/>
<path d="M232.196 162.795L230.255 162.795L230.254 165.246L232.196 165.246L232.196 162.795Z" fill="#9E9E9E"/>
<path d="M239.905 165.247L237.964 165.246L237.964 167.697L239.905 167.697L239.905 165.247Z" fill="#9E9E9E"/>
<path d="M239.906 162.796L237.964 162.796L237.964 165.246L239.905 165.247L239.906 162.796Z" fill="#9E9E9E"/>
<path d="M212.949 165.244L211.007 165.243L211.007 167.694L212.948 167.694L212.949 165.244Z" fill="#9E9E9E"/>
<path d="M214.89 165.244L212.949 165.244L212.948 167.694L214.89 167.695L214.89 165.244Z" fill="#9E9E9E"/>
<path d="M218.717 165.244L216.776 165.244L216.776 167.695L218.717 167.695L218.717 165.244Z" fill="#9E9E9E"/>
<path d="M224.486 165.245L222.544 165.245L222.544 167.695L224.486 167.696L224.486 165.245Z" fill="#9E9E9E"/>
<path d="M230.254 165.246L228.313 165.245L228.313 167.696L230.254 167.696L230.254 165.246Z" fill="#9E9E9E"/>
<path d="M232.196 165.246L230.254 165.246L230.254 167.696L232.195 167.697L232.196 165.246Z" fill="#9E9E9E"/>
<path d="M234.137 165.246L232.196 165.246L232.195 167.697L234.137 167.697L234.137 165.246Z" fill="#9E9E9E"/>
<path d="M237.964 165.246L236.023 165.246L236.022 167.697L237.964 167.697L237.964 165.246Z" fill="#9E9E9E"/>
<path d="M220.66 152.935L218.719 152.935L218.718 155.386L220.659 155.386L220.66 152.935Z" fill="#9E9E9E"/>
<path d="M212.948 167.694L211.007 167.694L211.007 170.145L212.948 170.145L212.948 167.694Z" fill="#9E9E9E"/>
<path d="M216.776 167.695L214.834 167.695L214.834 170.145L216.775 170.145L216.776 167.695Z" fill="#9E9E9E"/>
<path d="M218.717 167.695L216.776 167.695L216.775 170.145L218.717 170.146L218.717 167.695Z" fill="#9E9E9E"/>
<path d="M220.658 167.695L218.717 167.695L218.717 170.146L220.658 170.146L220.658 167.695Z" fill="#9E9E9E"/>
<path d="M222.544 167.695L220.603 167.695L220.603 170.146L222.544 170.146L222.544 167.695Z" fill="#9E9E9E"/>
<path d="M228.368 167.696L226.427 167.696L226.427 170.147L228.368 170.147L228.368 167.696Z" fill="#9E9E9E"/>
<path d="M234.137 167.697L232.195 167.697L232.195 170.147L234.136 170.148L234.137 167.697Z" fill="#9E9E9E"/>
<path d="M236.022 167.697L234.081 167.697L234.081 170.148L236.022 170.148L236.022 167.697Z" fill="#9E9E9E"/>
<path d="M239.905 167.697L237.964 167.697L237.963 170.148L239.905 170.148L239.905 167.697Z" fill="#9E9E9E"/>
<path d="M245.673 170.205L243.732 170.204L243.732 172.655L245.673 172.655L245.673 170.205Z" fill="#9E9E9E"/>
<path d="M243.732 170.204L241.79 170.204L241.79 172.655L243.732 172.655L243.732 170.204Z" fill="#9E9E9E"/>
<path d="M245.673 172.655L243.732 172.655L243.731 175.106L245.673 175.106L245.673 172.655Z" fill="#9E9E9E"/>
<path d="M218.717 170.146L216.775 170.145L216.775 172.596L218.716 172.596L218.717 170.146Z" fill="#9E9E9E"/>
<path d="M220.658 170.146L218.717 170.146L218.716 172.596L220.658 172.597L220.658 170.146Z" fill="#9E9E9E"/>
<path d="M230.254 170.091L228.312 170.091L228.312 172.542L230.253 172.542L230.254 170.091Z" fill="#9E9E9E"/>
<path d="M216.775 172.596L214.834 172.596L214.833 175.047L216.775 175.047L216.775 172.596Z" fill="#9E9E9E"/>
<path d="M220.658 172.597L218.716 172.596L218.716 175.047L220.657 175.047L220.658 172.597Z" fill="#9E9E9E"/>
<path d="M222.544 172.597L220.602 172.597L220.602 175.047L222.543 175.048L222.544 172.597Z" fill="#9E9E9E"/>
<path d="M224.485 172.597L222.544 172.597L222.543 175.048L224.485 175.048L224.485 172.597Z" fill="#9E9E9E"/>
<path d="M214.892 150.484L212.95 150.483L212.95 152.934L214.892 152.934L214.892 150.484Z" fill="#9E9E9E"/>
<path d="M234.136 172.598L232.195 172.598L232.194 175.049L234.136 175.049L234.136 172.598Z" fill="#9E9E9E"/>
<path d="M239.904 172.599L237.963 172.599L237.963 175.049L239.904 175.05L239.904 172.599Z" fill="#9E9E9E"/>
<path d="M214.889 175.047L212.948 175.047L212.947 177.497L214.889 177.497L214.889 175.047Z" fill="#9E9E9E"/>
<path d="M218.716 175.047L216.775 175.047L216.774 177.498L218.716 177.498L218.716 175.047Z" fill="#9E9E9E"/>
<path d="M224.485 175.048L222.543 175.048L222.543 177.498L224.484 177.499L224.485 175.048Z" fill="#9E9E9E"/>
<path d="M228.367 175.048L226.426 175.048L226.426 177.499L228.367 177.499L228.367 175.048Z" fill="#9E9E9E"/>
<path d="M232.194 175.049L230.253 175.049L230.253 177.499L232.194 177.499L232.194 175.049Z" fill="#9E9E9E"/>
<path d="M234.136 175.049L232.194 175.049L232.194 177.499L234.135 177.5L234.136 175.049Z" fill="#9E9E9E"/>
<path d="M236.022 175.049L234.08 175.049L234.08 177.5L236.021 177.5L236.022 175.049Z" fill="#9E9E9E"/>
<path d="M237.963 175.049L236.022 175.049L236.021 177.5L237.963 177.5L237.963 175.049Z" fill="#9E9E9E"/>
<path d="M212.948 170.089L211.007 170.089L211.007 172.54L212.948 172.54L212.948 170.089Z" fill="#9E9E9E"/>
<path d="M212.947 177.497L211.006 177.497L211.006 179.948L212.947 179.948L212.947 177.497Z" fill="#9E9E9E"/>
<path d="M214.889 177.497L212.947 177.497L212.947 179.948L214.888 179.948L214.889 177.497Z" fill="#9E9E9E"/>
<path d="M216.774 177.498L214.833 177.497L214.833 179.948L216.774 179.948L216.774 177.498Z" fill="#9E9E9E"/>
<path d="M218.716 177.498L216.774 177.498L216.774 179.948L218.715 179.949L218.716 177.498Z" fill="#9E9E9E"/>
<path d="M222.543 177.498L220.602 177.498L220.601 179.949L222.543 179.949L222.543 177.498Z" fill="#9E9E9E"/>
<path d="M232.194 177.499L230.253 177.499L230.253 179.95L232.194 179.95L232.194 177.499Z" fill="#9E9E9E"/>
<path d="M234.135 177.5L232.194 177.499L232.194 179.95L234.135 179.951L234.135 177.5Z" fill="#9E9E9E"/>
<path d="M237.963 177.5L236.021 177.5L236.021 179.951L237.962 179.951L237.963 177.5Z" fill="#9E9E9E"/>
<path d="M239.904 177.5L237.963 177.5L237.962 179.951L239.904 179.951L239.904 177.5Z" fill="#9E9E9E"/>
<path d="M214.891 157.223L212.95 157.223L212.949 159.674L214.891 159.674L214.891 157.223Z" fill="#9E9E9E"/>
<path d="M214.888 179.948L212.947 179.948L212.947 182.399L214.888 182.399L214.888 179.948Z" fill="#9E9E9E"/>
<path d="M218.715 179.949L216.774 179.948L216.774 182.399L218.715 182.399L218.715 179.949Z" fill="#9E9E9E"/>
<path d="M222.543 179.949L220.601 179.949L220.601 182.4L222.542 182.4L222.543 179.949Z" fill="#9E9E9E"/>
<path d="M228.367 179.95L226.425 179.95L226.425 182.4L228.366 182.401L228.367 179.95Z" fill="#9E9E9E"/>
<path d="M232.194 179.95L230.253 179.95L230.252 182.401L232.194 182.401L232.194 179.95Z" fill="#9E9E9E"/>
<path d="M236.021 179.951L234.08 179.951L234.079 182.401L236.021 182.401L236.021 179.951Z" fill="#9E9E9E"/>
<path d="M237.962 179.951L236.021 179.951L236.021 182.401L237.962 182.402L237.962 179.951Z" fill="#9E9E9E"/>
<path d="M212.947 182.399L211.005 182.398L211.005 184.849L212.946 184.849L212.947 182.399Z" fill="#9E9E9E"/>
<path d="M216.774 182.399L214.832 182.399L214.832 184.85L216.773 184.85L216.774 182.399Z" fill="#9E9E9E"/>
<path d="M218.715 182.399L216.774 182.399L216.773 184.85L218.715 184.85L218.715 182.399Z" fill="#9E9E9E"/>
<path d="M224.484 182.4L222.542 182.4L222.542 184.851L224.484 184.851L224.484 182.4Z" fill="#9E9E9E"/>
<path d="M226.425 182.4L224.484 182.4L224.484 184.851L226.425 184.851L226.425 182.4Z" fill="#9E9E9E"/>
<path d="M228.366 182.401L226.425 182.4L226.425 184.851L228.366 184.851L228.366 182.401Z" fill="#9E9E9E"/>
<path d="M230.252 182.401L228.311 182.4L228.311 184.851L230.252 184.851L230.252 182.401Z" fill="#9E9E9E"/>
<path d="M234.135 182.401L232.194 182.401L232.193 184.852L234.135 184.852L234.135 182.401Z" fill="#9E9E9E"/>
<path d="M236.021 182.401L234.079 182.401L234.079 184.852L236.02 184.852L236.021 182.401Z" fill="#9E9E9E"/>
<path d="M237.962 182.402L236.021 182.401L236.02 184.852L237.962 184.852L237.962 182.402Z" fill="#9E9E9E"/>
<path d="M220.656 184.795L218.715 184.794L218.715 187.245L220.656 187.245L220.656 184.795Z" fill="#9E9E9E"/>
<path d="M222.542 184.795L220.601 184.795L220.601 187.245L222.542 187.246L222.542 184.795Z" fill="#9E9E9E"/>
<path d="M226.425 184.795L224.483 184.795L224.483 187.246L226.425 187.246L226.425 184.795Z" fill="#9E9E9E"/>
<path d="M218.715 184.794L216.774 184.794L216.773 187.245L218.715 187.245L218.715 184.794Z" fill="#9E9E9E"/>
<path d="M216.773 187.245L214.832 187.245L214.832 189.696L216.773 189.696L216.773 187.245Z" fill="#9E9E9E"/>
<path d="M216.773 189.696L214.832 189.696L214.831 192.146L216.773 192.146L216.773 189.696Z" fill="#9E9E9E"/>
<path d="M224.483 187.246L222.542 187.246L222.542 189.696L224.483 189.697L224.483 187.246Z" fill="#9E9E9E"/>
<path d="M228.366 187.246L226.425 187.246L226.424 189.697L228.366 189.697L228.366 187.246Z" fill="#9E9E9E"/>
<path d="M234.135 184.796L232.193 184.796L232.193 187.247L234.134 187.247L234.135 184.796Z" fill="#9E9E9E"/>
<path d="M237.961 189.698L236.02 189.698L236.02 192.149L237.961 192.149L237.961 189.698Z" fill="#9E9E9E"/>
<path d="M239.903 187.248L237.961 187.247L237.961 189.698L239.902 189.698L239.903 187.248Z" fill="#9E9E9E"/>
<path d="M226.424 189.697L224.483 189.697L224.483 192.147L226.424 192.148L226.424 189.697Z" fill="#9E9E9E"/>
<path d="M234.134 189.698L232.193 189.698L232.192 192.148L234.134 192.149L234.134 189.698Z" fill="#9E9E9E"/>
<path d="M236.02 189.698L234.078 189.698L234.078 192.149L236.02 192.149L236.02 189.698Z" fill="#9E9E9E"/>
<path d="M220.656 187.245L218.715 187.245L218.714 189.696L220.656 189.696L220.656 187.245Z" fill="#9E9E9E"/>
<path d="M220.655 192.147L218.714 192.147L218.714 194.597L220.655 194.598L220.655 192.147Z" fill="#9E9E9E"/>
<path d="M224.483 192.147L222.541 192.147L222.541 194.598L224.482 194.598L224.483 192.147Z" fill="#9E9E9E"/>
<path d="M226.424 192.148L224.483 192.147L224.482 194.598L226.424 194.598L226.424 192.148Z" fill="#9E9E9E"/>
<path d="M239.901 201.952L237.96 201.952L237.959 204.403L239.901 204.403L239.901 201.952Z" fill="#9E9E9E"/>
<path d="M232.192 192.148L230.251 192.148L230.251 194.599L232.192 194.599L232.192 192.148Z" fill="#9E9E9E"/>
<path d="M234.134 192.149L232.192 192.148L232.192 194.599L234.133 194.599L234.134 192.149Z" fill="#9E9E9E"/>
<path d="M236.02 192.149L234.078 192.149L234.078 194.599L236.019 194.599L236.02 192.149Z" fill="#9E9E9E"/>
<path d="M237.961 192.149L236.02 192.149L236.019 194.599L237.961 194.6L237.961 192.149Z" fill="#9E9E9E"/>
<path d="M239.902 192.149L237.961 192.149L237.961 194.6L239.902 194.6L239.902 192.149Z" fill="#9E9E9E"/>
<path d="M212.946 184.794L211.005 184.794L211.005 187.244L212.946 187.245L212.946 184.794Z" fill="#9E9E9E"/>
<path d="M220.655 194.598L218.714 194.597L218.713 197.048L220.655 197.048L220.655 194.598Z" fill="#9E9E9E"/>
<path d="M222.541 194.598L220.6 194.598L220.599 197.048L222.541 197.049L222.541 194.598Z" fill="#9E9E9E"/>
<path d="M230.251 192.148L228.31 192.148L228.31 194.599L230.251 194.599L230.251 192.148Z" fill="#9E9E9E"/>
<path d="M230.252 184.796L228.311 184.796L228.31 187.246L230.252 187.247L230.252 184.796Z" fill="#9E9E9E"/>
<path d="M239.902 194.6L237.961 194.6L237.96 197.05L239.902 197.051L239.902 194.6Z" fill="#9E9E9E"/>
<path d="M237.96 197.05L236.019 197.05L236.019 199.501L237.96 199.501L237.96 197.05Z" fill="#9E9E9E"/>
<path d="M239.903 184.797L237.962 184.797L237.961 187.247L239.903 187.248L239.903 184.797Z" fill="#9E9E9E"/>
<path d="M239.903 182.402L237.962 182.402L237.962 184.852L239.903 184.853L239.903 182.402Z" fill="#9E9E9E"/>
<path d="M222.541 197.049L220.599 197.048L220.599 199.499L222.541 199.499L222.541 197.049Z" fill="#9E9E9E"/>
<path d="M245.671 187.304L243.73 187.304L243.73 189.755L245.671 189.755L245.671 187.304Z" fill="#9E9E9E"/>
<path d="M245.671 189.755L243.73 189.755L243.729 192.205L245.671 192.206L245.671 189.755Z" fill="#9E9E9E"/>
<path d="M247.557 189.755L245.615 189.755L245.615 192.206L247.556 192.206L247.557 189.755Z" fill="#9E9E9E"/>
<path d="M247.556 192.206L245.615 192.206L245.615 194.656L247.556 194.657L247.556 192.206Z" fill="#9E9E9E"/>
<path d="M247.556 194.657L245.615 194.656L245.615 197.107L247.556 197.107L247.556 194.657Z" fill="#9E9E9E"/>
<path d="M226.423 197.049L224.482 197.049L224.482 199.5L226.423 199.5L226.423 197.049Z" fill="#9E9E9E"/>
<path d="M230.25 197.05L228.309 197.049L228.309 199.5L230.25 199.5L230.25 197.05Z" fill="#9E9E9E"/>
<path d="M234.133 197.05L232.192 197.05L232.192 199.5L234.133 199.501L234.133 197.05Z" fill="#9E9E9E"/>
<path d="M239.902 197.051L237.96 197.05L237.96 199.501L239.901 199.501L239.902 197.051Z" fill="#9E9E9E"/>
<path d="M220.654 199.499L218.713 199.499L218.713 201.95L220.654 201.95L220.654 199.499Z" fill="#9E9E9E"/>
<path d="M224.482 199.5L222.541 199.499L222.54 201.95L224.482 201.95L224.482 199.5Z" fill="#9E9E9E"/>
<path d="M226.423 199.5L224.482 199.5L224.482 201.95L226.423 201.951L226.423 199.5Z" fill="#9E9E9E"/>
<path d="M232.192 199.5L230.25 199.5L230.25 201.951L232.191 201.951L232.192 199.5Z" fill="#9E9E9E"/>
<path d="M234.133 199.501L232.192 199.5L232.191 201.951L234.133 201.952L234.133 199.501Z" fill="#9E9E9E"/>
<path d="M216.771 201.949L214.83 201.949L214.83 204.4L216.771 204.4L216.771 201.949Z" fill="#9E9E9E"/>
<path d="M220.654 201.95L218.713 201.95L218.713 204.4L220.654 204.401L220.654 201.95Z" fill="#9E9E9E"/>
<path d="M222.54 201.95L220.599 201.95L220.599 204.401L222.54 204.401L222.54 201.95Z" fill="#9E9E9E"/>
<path d="M224.482 201.95L222.54 201.95L222.54 204.401L224.481 204.401L224.482 201.95Z" fill="#9E9E9E"/>
<path d="M228.364 201.951L226.423 201.951L226.423 204.401L228.364 204.402L228.364 201.951Z" fill="#9E9E9E"/>
<path d="M245.67 197.051L243.729 197.051L243.728 199.502L245.67 199.502L245.67 197.051Z" fill="#9E9E9E"/>
<path d="M243.728 201.953L241.787 201.952L241.787 204.403L243.728 204.403L243.728 201.953Z" fill="#9E9E9E"/>
<path d="M236.018 201.952L234.077 201.952L234.077 204.402L236.018 204.402L236.018 201.952Z" fill="#9E9E9E"/>
<path d="M237.96 201.952L236.018 201.952L236.018 204.402L237.959 204.403L237.96 201.952Z" fill="#9E9E9E"/>
<path d="M212.951 143.447L210.954 143.447L210.947 204.437L212.944 204.437L212.951 143.447Z" fill="#9E9E9E"/>
<path d="M253.298 189.7L251.357 189.7L251.356 192.151L253.298 192.151L253.298 189.7Z" fill="#9E9E9E"/>
<path d="M257.124 201.954L255.183 201.954L255.182 204.405L257.124 204.405L257.124 201.954Z" fill="#9E9E9E"/>
<path d="M253.297 197.052L251.356 197.052L251.356 199.503L253.297 199.503L253.297 197.052Z" fill="#9E9E9E"/>
<path d="M251.355 201.954L249.414 201.953L249.414 204.404L251.355 204.404L251.355 201.954Z" fill="#9E9E9E"/>
<path d="M253.297 199.503L251.356 199.503L251.355 201.954L253.297 201.954L253.297 199.503Z" fill="#9E9E9E"/>
<path d="M253.297 201.954L251.355 201.954L251.355 204.404L253.296 204.405L253.297 201.954Z" fill="#9E9E9E"/>
<path d="M280.204 150.603L278.262 150.602L278.262 153.053L280.203 153.053L280.204 150.603Z" fill="#9E9E9E"/>
<path d="M259.072 143.248L257.131 143.248L257.131 145.698L259.072 145.699L259.072 143.248Z" fill="#9E9E9E"/>
<path d="M255.19 143.247L253.248 143.247L253.248 145.698L255.189 145.698L255.19 143.247Z" fill="#9E9E9E"/>
<path d="M257.131 143.248L255.19 143.247L255.189 145.698L257.131 145.698L257.131 143.248Z" fill="#9E9E9E"/>
<path d="M262.899 143.248L260.958 143.248L260.958 145.699L262.899 145.699L262.899 143.248Z" fill="#9E9E9E"/>
<path d="M264.841 143.249L262.899 143.248L262.899 145.699L264.84 145.699L264.841 143.249Z" fill="#9E9E9E"/>
<path d="M282.146 143.251L280.205 143.25L280.204 145.701L282.146 145.701L282.146 143.251Z" fill="#9E9E9E"/>
<path d="M280.204 145.701L278.263 145.701L278.263 148.152L280.204 148.152L280.204 145.701Z" fill="#9E9E9E"/>
<path d="M264.84 145.699L262.899 145.699L262.899 148.15L264.84 148.15L264.84 145.699Z" fill="#9E9E9E"/>
<path d="M266.781 145.7L264.84 145.699L264.84 148.15L266.781 148.15L266.781 145.7Z" fill="#9E9E9E"/>
<path d="M268.667 145.7L266.726 145.7L266.726 148.15L268.667 148.151L268.667 145.7Z" fill="#9E9E9E"/>
<path d="M270.609 145.7L268.667 145.7L268.667 148.151L270.608 148.151L270.609 145.7Z" fill="#9E9E9E"/>
<path d="M274.436 145.701L272.494 145.7L272.494 148.151L274.436 148.151L274.436 145.701Z" fill="#9E9E9E"/>
<path d="M274.436 143.25L272.495 143.25L272.494 145.7L274.436 145.701L274.436 143.25Z" fill="#9E9E9E"/>
<path d="M260.957 148.15L259.016 148.149L259.016 150.6L260.957 150.6L260.957 148.15Z" fill="#9E9E9E"/>
<path d="M264.84 148.15L262.899 148.15L262.898 150.601L264.84 150.601L264.84 148.15Z" fill="#9E9E9E"/>
<path d="M268.667 148.151L266.726 148.15L266.725 150.601L268.667 150.601L268.667 148.151Z" fill="#9E9E9E"/>
<path d="M272.55 148.151L270.608 148.151L270.608 150.602L272.549 150.602L272.55 148.151Z" fill="#9E9E9E"/>
<path d="M274.436 148.151L272.494 148.151L272.494 150.602L274.435 150.602L274.436 148.151Z" fill="#9E9E9E"/>
<path d="M282.145 148.152L280.204 148.152L280.204 150.603L282.145 150.603L282.145 148.152Z" fill="#9E9E9E"/>
<path d="M280.199 187.308L278.258 187.308L278.258 189.759L280.199 189.759L280.199 187.308Z" fill="#9E9E9E"/>
<path d="M280.201 177.505L278.259 177.505L278.259 179.956L280.2 179.956L280.201 177.505Z" fill="#9E9E9E"/>
<path d="M280.2 182.407L278.259 182.406L278.258 184.857L280.2 184.857L280.2 182.407Z" fill="#9E9E9E"/>
<path d="M282.141 184.858L280.2 184.857L280.199 187.308L282.141 187.308L282.141 184.858Z" fill="#9E9E9E"/>
<path d="M282.142 177.505L280.201 177.505L280.2 179.956L282.142 179.956L282.142 177.505Z" fill="#9E9E9E"/>
<path d="M284.084 170.153L282.143 170.153L282.142 172.604L284.084 172.604L284.084 170.153Z" fill="#9E9E9E"/>
<path d="M282.142 172.604L280.201 172.604L280.201 175.054L282.142 175.055L282.142 172.604Z" fill="#9E9E9E"/>
<path d="M284.083 175.055L282.142 175.055L282.142 177.505L284.083 177.506L284.083 175.055Z" fill="#9E9E9E"/>
<path d="M262.898 150.601L260.957 150.6L260.957 153.051L262.898 153.051L262.898 150.601Z" fill="#9E9E9E"/>
<path d="M259.072 148.149L257.13 148.149L257.13 150.6L259.071 150.6L259.072 148.149Z" fill="#9E9E9E"/>
<path d="M268.667 150.601L266.725 150.601L266.725 153.052L268.667 153.052L268.667 150.601Z" fill="#9E9E9E"/>
<path d="M272.549 150.602L270.608 150.602L270.608 153.052L272.549 153.053L272.549 150.602Z" fill="#9E9E9E"/>
<path d="M257.131 145.698L255.189 145.698L255.189 148.149L257.13 148.149L257.131 145.698Z" fill="#9E9E9E"/>
<path d="M262.898 153.051L260.957 153.051L260.957 155.502L262.898 155.502L262.898 153.051Z" fill="#9E9E9E"/>
<path d="M264.839 153.052L262.898 153.051L262.898 155.502L264.839 155.502L264.839 153.052Z" fill="#9E9E9E"/>
<path d="M266.781 153.052L264.839 153.052L264.839 155.502L266.78 155.503L266.781 153.052Z" fill="#9E9E9E"/>
<path d="M274.435 153.053L272.494 153.053L272.493 155.503L274.435 155.503L274.435 153.053Z" fill="#9E9E9E"/>
<path d="M257.13 152.939L255.188 152.939L255.188 155.39L257.129 155.39L257.13 152.939Z" fill="#9E9E9E"/>
<path d="M259.071 150.6L257.13 150.6L257.13 153.051L259.071 153.051L259.071 150.6Z" fill="#9E9E9E"/>
<path d="M264.839 155.502L262.898 155.502L262.898 157.953L264.839 157.953L264.839 155.502Z" fill="#9E9E9E"/>
<path d="M278.317 155.504L276.376 155.504L276.376 157.954L278.317 157.955L278.317 155.504Z" fill="#9E9E9E"/>
<path d="M251.362 143.247L249.421 143.247L249.421 145.698L251.362 145.698L251.362 143.247Z" fill="#9E9E9E"/>
<path d="M253.303 143.247L251.362 143.247L251.362 145.698L253.303 145.698L253.303 143.247Z" fill="#9E9E9E"/>
<path d="M253.303 145.698L251.362 145.698L251.362 148.149L253.303 148.149L253.303 145.698Z" fill="#9E9E9E"/>
<path d="M251.361 155.501L249.419 155.501L249.419 157.951L251.36 157.952L251.361 155.501Z" fill="#9E9E9E"/>
<path d="M253.302 152.939L251.361 152.939L251.361 155.389L253.302 155.39L253.302 152.939Z" fill="#9E9E9E"/>
<path d="M255.188 152.939L253.247 152.939L253.247 155.39L255.188 155.39L255.188 152.939Z" fill="#9E9E9E"/>
<path d="M259.07 157.952L257.129 157.952L257.129 160.403L259.07 160.403L259.07 157.952Z" fill="#9E9E9E"/>
<path d="M262.898 157.953L260.956 157.953L260.956 160.403L262.897 160.404L262.898 157.953Z" fill="#9E9E9E"/>
<path d="M266.78 157.953L264.839 157.953L264.839 160.404L266.78 160.404L266.78 157.953Z" fill="#9E9E9E"/>
<path d="M270.607 157.954L268.666 157.954L268.666 160.404L270.607 160.405L270.607 157.954Z" fill="#9E9E9E"/>
<path d="M278.317 160.35L276.375 160.349L276.375 162.8L278.316 162.801L278.317 160.35Z" fill="#9E9E9E"/>
<path d="M278.317 157.955L276.376 157.954L276.375 160.405L278.317 160.405L278.317 157.955Z" fill="#9E9E9E"/>
<path d="M259.07 160.347L257.129 160.347L257.129 162.798L259.07 162.798L259.07 160.347Z" fill="#9E9E9E"/>
<path d="M260.956 160.348L259.015 160.347L259.014 162.798L260.956 162.798L260.956 160.348Z" fill="#9E9E9E"/>
<path d="M266.78 160.348L264.839 160.348L264.838 162.799L266.78 162.799L266.78 160.348Z" fill="#9E9E9E"/>
<path d="M268.666 160.349L266.724 160.348L266.724 162.799L268.665 162.799L268.666 160.349Z" fill="#9E9E9E"/>
<path d="M251.36 162.797L249.419 162.797L249.418 165.248L251.36 165.248L251.36 162.797Z" fill="#9E9E9E"/>
<path d="M255.187 162.798L253.246 162.798L253.246 165.248L255.187 165.249L255.187 162.798Z" fill="#9E9E9E"/>
<path d="M260.956 162.798L259.014 162.798L259.014 165.249L260.955 165.249L260.956 162.798Z" fill="#9E9E9E"/>
<path d="M266.78 162.799L264.838 162.799L264.838 165.25L266.779 165.25L266.78 162.799Z" fill="#9E9E9E"/>
<path d="M270.607 162.8L268.665 162.799L268.665 165.25L270.606 165.25L270.607 162.8Z" fill="#9E9E9E"/>
<path d="M278.316 165.251L276.375 165.251L276.375 167.702L278.316 167.702L278.316 165.251Z" fill="#9E9E9E"/>
<path d="M278.316 162.801L276.375 162.8L276.375 165.251L278.316 165.251L278.316 162.801Z" fill="#9E9E9E"/>
<path d="M251.36 165.248L249.418 165.248L249.418 167.699L251.359 167.699L251.36 165.248Z" fill="#9E9E9E"/>
<path d="M253.301 165.248L251.36 165.248L251.359 167.699L253.301 167.699L253.301 165.248Z" fill="#9E9E9E"/>
<path d="M257.128 165.249L255.187 165.249L255.187 167.699L257.128 167.7L257.128 165.249Z" fill="#9E9E9E"/>
<path d="M262.897 165.249L260.955 165.249L260.955 167.7L262.896 167.7L262.897 165.249Z" fill="#9E9E9E"/>
<path d="M268.665 165.25L266.724 165.25L266.724 167.701L268.665 167.701L268.665 165.25Z" fill="#9E9E9E"/>
<path d="M270.606 165.25L268.665 165.25L268.665 167.701L270.606 167.701L270.606 165.25Z" fill="#9E9E9E"/>
<path d="M272.548 165.251L270.606 165.25L270.606 167.701L272.547 167.701L272.548 165.251Z" fill="#9E9E9E"/>
<path d="M276.375 165.251L274.433 165.251L274.433 167.702L276.375 167.702L276.375 165.251Z" fill="#9E9E9E"/>
<path d="M259.071 152.94L257.13 152.939L257.129 155.39L259.071 155.39L259.071 152.94Z" fill="#9E9E9E"/>
<path d="M251.359 167.699L249.418 167.699L249.418 170.149L251.359 170.15L251.359 167.699Z" fill="#9E9E9E"/>
<path d="M255.187 167.699L253.245 167.699L253.245 170.15L255.186 170.15L255.187 167.699Z" fill="#9E9E9E"/>
<path d="M257.128 167.7L255.187 167.699L255.186 170.15L257.128 170.15L257.128 167.7Z" fill="#9E9E9E"/>
<path d="M259.069 167.7L257.128 167.7L257.128 170.15L259.069 170.15L259.069 167.7Z" fill="#9E9E9E"/>
<path d="M260.955 167.7L259.014 167.7L259.013 170.15L260.955 170.151L260.955 167.7Z" fill="#9E9E9E"/>
<path d="M266.779 167.701L264.838 167.7L264.837 170.151L266.779 170.151L266.779 167.701Z" fill="#9E9E9E"/>
<path d="M272.547 167.701L270.606 167.701L270.606 170.152L272.547 170.152L272.547 167.701Z" fill="#9E9E9E"/>
<path d="M274.433 167.702L272.492 167.701L272.492 170.152L274.433 170.152L274.433 167.702Z" fill="#9E9E9E"/>
<path d="M278.316 167.702L276.375 167.702L276.374 170.152L278.316 170.153L278.316 167.702Z" fill="#9E9E9E"/>
<path d="M257.128 170.15L255.186 170.15L255.186 172.601L257.127 172.601L257.128 170.15Z" fill="#9E9E9E"/>
<path d="M259.069 170.15L257.128 170.15L257.127 172.601L259.069 172.601L259.069 170.15Z" fill="#9E9E9E"/>
<path d="M268.665 170.096L266.723 170.096L266.723 172.546L268.664 172.547L268.665 170.096Z" fill="#9E9E9E"/>
<path d="M255.186 172.601L253.245 172.6L253.244 175.051L255.186 175.051L255.186 172.601Z" fill="#9E9E9E"/>
<path d="M259.069 172.601L257.127 172.601L257.127 175.052L259.068 175.052L259.069 172.601Z" fill="#9E9E9E"/>
<path d="M260.955 172.601L259.013 172.601L259.013 175.052L260.954 175.052L260.955 172.601Z" fill="#9E9E9E"/>
<path d="M262.896 172.602L260.955 172.601L260.954 175.052L262.896 175.052L262.896 172.602Z" fill="#9E9E9E"/>
<path d="M253.303 150.488L251.361 150.488L251.361 152.939L253.302 152.939L253.303 150.488Z" fill="#9E9E9E"/>
<path d="M272.547 172.603L270.606 172.603L270.605 175.053L272.547 175.054L272.547 172.603Z" fill="#9E9E9E"/>
<path d="M278.315 172.603L276.374 172.603L276.374 175.054L278.315 175.054L278.315 172.603Z" fill="#9E9E9E"/>
<path d="M253.3 175.051L251.358 175.051L251.358 177.502L253.299 177.502L253.3 175.051Z" fill="#9E9E9E"/>
<path d="M257.127 175.052L255.186 175.051L255.186 177.502L257.127 177.502L257.127 175.052Z" fill="#9E9E9E"/>
<path d="M262.896 175.052L260.954 175.052L260.954 177.503L262.895 177.503L262.896 175.052Z" fill="#9E9E9E"/>
<path d="M266.778 175.053L264.837 175.053L264.837 177.503L266.778 177.504L266.778 175.053Z" fill="#9E9E9E"/>
<path d="M270.605 175.053L268.664 175.053L268.664 177.504L270.605 177.504L270.605 175.053Z" fill="#9E9E9E"/>
<path d="M272.547 175.054L270.605 175.053L270.605 177.504L272.546 177.504L272.547 175.054Z" fill="#9E9E9E"/>
<path d="M274.432 175.054L272.491 175.053L272.491 177.504L274.432 177.504L274.432 175.054Z" fill="#9E9E9E"/>
<path d="M276.374 175.054L274.432 175.054L274.432 177.504L276.373 177.505L276.374 175.054Z" fill="#9E9E9E"/>
<path d="M251.359 170.094L249.418 170.094L249.417 172.544L251.359 172.545L251.359 170.094Z" fill="#9E9E9E"/>
<path d="M251.358 177.502L249.417 177.502L249.417 179.952L251.358 179.953L251.358 177.502Z" fill="#9E9E9E"/>
<path d="M253.299 177.502L251.358 177.502L251.358 179.953L253.299 179.953L253.299 177.502Z" fill="#9E9E9E"/>
<path d="M255.186 177.502L253.244 177.502L253.244 179.953L255.185 179.953L255.186 177.502Z" fill="#9E9E9E"/>
<path d="M257.127 177.502L255.186 177.502L255.185 179.953L257.126 179.953L257.127 177.502Z" fill="#9E9E9E"/>
<path d="M260.954 177.503L259.013 177.503L259.012 179.953L260.954 179.954L260.954 177.503Z" fill="#9E9E9E"/>
<path d="M270.605 177.504L268.664 177.504L268.663 179.955L270.605 179.955L270.605 177.504Z" fill="#9E9E9E"/>
<path d="M272.546 177.504L270.605 177.504L270.605 179.955L272.546 179.955L272.546 177.504Z" fill="#9E9E9E"/>
<path d="M276.373 177.505L274.432 177.504L274.432 179.955L276.373 179.955L276.373 177.505Z" fill="#9E9E9E"/>
<path d="M278.315 177.505L276.373 177.505L276.373 179.955L278.314 179.956L278.315 177.505Z" fill="#9E9E9E"/>
<path d="M253.302 157.228L251.36 157.227L251.36 159.678L253.301 159.678L253.302 157.228Z" fill="#9E9E9E"/>
<path d="M253.299 179.953L251.358 179.953L251.357 182.403L253.299 182.403L253.299 179.953Z" fill="#9E9E9E"/>
<path d="M257.126 179.953L255.185 179.953L255.185 182.404L257.126 182.404L257.126 179.953Z" fill="#9E9E9E"/>
<path d="M260.954 179.954L259.012 179.953L259.012 182.404L260.953 182.404L260.954 179.954Z" fill="#9E9E9E"/>
<path d="M266.778 179.954L264.836 179.954L264.836 182.405L266.777 182.405L266.778 179.954Z" fill="#9E9E9E"/>
<path d="M270.605 179.955L268.663 179.955L268.663 182.405L270.604 182.406L270.605 179.955Z" fill="#9E9E9E"/>
<path d="M274.432 179.955L272.49 179.955L272.49 182.406L274.432 182.406L274.432 179.955Z" fill="#9E9E9E"/>
<path d="M276.373 179.955L274.432 179.955L274.432 182.406L276.373 182.406L276.373 179.955Z" fill="#9E9E9E"/>
<path d="M251.357 182.403L249.416 182.403L249.416 184.854L251.357 184.854L251.357 182.403Z" fill="#9E9E9E"/>
<path d="M255.185 182.404L253.244 182.403L253.243 184.854L255.185 184.854L255.185 182.404Z" fill="#9E9E9E"/>
<path d="M257.126 182.404L255.185 182.404L255.185 184.854L257.126 184.855L257.126 182.404Z" fill="#9E9E9E"/>
<path d="M262.895 182.405L260.953 182.404L260.953 184.855L262.894 184.855L262.895 182.405Z" fill="#9E9E9E"/>
<path d="M264.836 182.405L262.895 182.405L262.894 184.855L264.836 184.856L264.836 182.405Z" fill="#9E9E9E"/>
<path d="M266.777 182.405L264.836 182.405L264.836 184.856L266.777 184.856L266.777 182.405Z" fill="#9E9E9E"/>
<path d="M268.663 182.405L266.722 182.405L266.721 184.856L268.663 184.856L268.663 182.405Z" fill="#9E9E9E"/>
<path d="M257.458 192.096L255.516 192.095L255.516 194.546L257.457 194.546L257.458 192.096Z" fill="#9E9E9E"/>
<path d="M259.399 192.096L257.458 192.096L257.457 194.546L259.399 194.547L259.399 192.096Z" fill="#9E9E9E"/>
<path d="M276.373 182.406L274.432 182.406L274.431 184.857L276.373 184.857L276.373 182.406Z" fill="#9E9E9E"/>
<path d="M259.067 184.799L257.126 184.799L257.126 187.25L259.067 187.25L259.067 184.799Z" fill="#9E9E9E"/>
<path d="M260.953 184.799L259.012 184.799L259.011 187.25L260.953 187.25L260.953 184.799Z" fill="#9E9E9E"/>
<path d="M264.836 184.8L262.894 184.8L262.894 187.25L264.835 187.251L264.836 184.8Z" fill="#9E9E9E"/>
<path d="M257.126 184.799L255.185 184.799L255.184 187.249L257.126 187.25L257.126 184.799Z" fill="#9E9E9E"/>
<path d="M255.184 187.249L253.243 187.249L253.243 189.7L255.184 189.7L255.184 187.249Z" fill="#9E9E9E"/>
<path d="M255.184 189.7L253.243 189.7L253.243 192.151L255.184 192.151L255.184 189.7Z" fill="#9E9E9E"/>
<path d="M262.894 187.25L260.953 187.25L260.952 189.701L262.894 189.701L262.894 187.25Z" fill="#9E9E9E"/>
<path d="M266.777 187.251L264.835 187.251L264.835 189.701L266.776 189.702L266.777 187.251Z" fill="#9E9E9E"/>
<path d="M272.545 184.801L270.604 184.801L270.604 187.251L272.545 187.252L272.545 184.801Z" fill="#9E9E9E"/>
<path d="M276.372 189.703L274.431 189.703L274.43 192.153L276.372 192.153L276.372 189.703Z" fill="#9E9E9E"/>
<path d="M278.314 187.252L276.372 187.252L276.372 189.703L278.313 189.703L278.314 187.252Z" fill="#9E9E9E"/>
<path d="M264.835 189.701L262.894 189.701L262.894 192.152L264.835 192.152L264.835 189.701Z" fill="#9E9E9E"/>
<path d="M272.545 189.702L270.604 189.702L270.603 192.153L272.545 192.153L272.545 189.702Z" fill="#9E9E9E"/>
<path d="M274.431 189.703L272.489 189.702L272.489 192.153L274.43 192.153L274.431 189.703Z" fill="#9E9E9E"/>
<path d="M259.067 187.25L257.126 187.25L257.125 189.7L259.067 189.701L259.067 187.25Z" fill="#9E9E9E"/>
<path d="M272.548 160.238L270.607 160.237L270.607 162.688L272.548 162.688L272.548 160.238Z" fill="#9E9E9E"/>
<path d="M262.894 192.152L260.952 192.152L260.952 194.602L262.893 194.603L262.894 192.152Z" fill="#9E9E9E"/>
<path d="M264.835 192.152L262.894 192.152L262.893 194.603L264.835 194.603L264.835 192.152Z" fill="#9E9E9E"/>
<path d="M280.198 199.506L278.257 199.506L278.256 201.957L280.198 201.957L280.198 199.506Z" fill="#9E9E9E"/>
<path d="M270.603 192.153L268.662 192.153L268.662 194.603L270.603 194.604L270.603 192.153Z" fill="#9E9E9E"/>
<path d="M272.545 192.153L270.603 192.153L270.603 194.604L272.544 194.604L272.545 192.153Z" fill="#9E9E9E"/>
<path d="M274.43 192.153L272.489 192.153L272.489 194.604L274.43 194.604L274.43 192.153Z" fill="#9E9E9E"/>
<path d="M276.372 192.153L274.43 192.153L274.43 194.604L276.371 194.604L276.372 192.153Z" fill="#9E9E9E"/>
<path d="M278.313 192.154L276.372 192.153L276.371 194.604L278.313 194.604L278.313 192.154Z" fill="#9E9E9E"/>
<path d="M251.357 184.798L249.416 184.798L249.416 187.249L251.357 187.249L251.357 184.798Z" fill="#9E9E9E"/>
<path d="M272.548 162.688L270.607 162.688L270.606 165.139L272.548 165.139L272.548 162.688Z" fill="#9E9E9E"/>
<path d="M274.434 162.689L272.493 162.688L272.492 165.139L274.434 165.139L274.434 162.689Z" fill="#9E9E9E"/>
<path d="M268.662 192.153L266.721 192.152L266.72 194.603L268.662 194.603L268.662 192.153Z" fill="#9E9E9E"/>
<path d="M268.663 184.8L266.721 184.8L266.721 187.251L268.662 187.251L268.663 184.8Z" fill="#9E9E9E"/>
<path d="M278.313 194.604L276.371 194.604L276.371 197.055L278.312 197.055L278.313 194.604Z" fill="#9E9E9E"/>
<path d="M276.371 197.055L274.43 197.055L274.43 199.505L276.371 199.506L276.371 197.055Z" fill="#9E9E9E"/>
<path d="M278.314 184.801L276.373 184.801L276.372 187.252L278.314 187.252L278.314 184.801Z" fill="#9E9E9E"/>
<path d="M278.314 182.406L276.373 182.406L276.373 184.857L278.314 184.857L278.314 182.406Z" fill="#9E9E9E"/>
<path d="M260.952 197.053L259.01 197.053L259.01 199.504L260.951 199.504L260.952 197.053Z" fill="#9E9E9E"/>
<path d="M282.089 160.406L280.147 160.406L280.147 162.856L282.088 162.857L282.089 160.406Z" fill="#9E9E9E"/>
<path d="M282.088 162.857L280.147 162.856L280.147 165.307L282.088 165.307L282.088 162.857Z" fill="#9E9E9E"/>
<path d="M284.03 162.857L282.088 162.857L282.088 165.307L284.029 165.308L284.03 162.857Z" fill="#9E9E9E"/>
<path d="M284.029 165.308L282.088 165.307L282.088 167.758L284.029 167.758L284.029 165.308Z" fill="#9E9E9E"/>
<path d="M284.029 167.758L282.088 167.758L282.087 170.209L284.029 170.209L284.029 167.758Z" fill="#9E9E9E"/>
<path d="M264.834 197.054L262.893 197.053L262.893 199.504L264.834 199.504L264.834 197.054Z" fill="#9E9E9E"/>
<path d="M268.661 197.054L266.72 197.054L266.72 199.505L268.661 199.505L268.661 197.054Z" fill="#9E9E9E"/>
<path d="M272.544 197.055L270.603 197.054L270.602 199.505L272.544 199.505L272.544 197.055Z" fill="#9E9E9E"/>
<path d="M278.312 197.055L276.371 197.055L276.371 199.506L278.312 199.506L278.312 197.055Z" fill="#9E9E9E"/>
<path d="M259.066 199.504L257.124 199.503L257.124 201.954L259.065 201.954L259.066 199.504Z" fill="#9E9E9E"/>
<path d="M262.893 199.504L260.951 199.504L260.951 201.955L262.892 201.955L262.893 199.504Z" fill="#9E9E9E"/>
<path d="M264.834 199.504L262.893 199.504L262.892 201.955L264.834 201.955L264.834 199.504Z" fill="#9E9E9E"/>
<path d="M270.602 199.505L268.661 199.505L268.661 201.956L270.602 201.956L270.602 199.505Z" fill="#9E9E9E"/>
<path d="M280.199 189.703L278.258 189.703L278.257 192.154L280.199 192.154L280.199 189.703Z" fill="#9E9E9E"/>
<path d="M282.14 192.098L280.199 192.098L280.198 194.549L282.14 194.549L282.14 192.098Z" fill="#9E9E9E"/>
<path d="M272.544 199.505L270.602 199.505L270.602 201.956L272.543 201.956L272.544 199.505Z" fill="#9E9E9E"/>
<path d="M255.183 201.954L253.241 201.954L253.241 204.405L255.182 204.405L255.183 201.954Z" fill="#9E9E9E"/>
<path d="M259.065 201.954L257.124 201.954L257.124 204.405L259.065 204.405L259.065 201.954Z" fill="#9E9E9E"/>
<path d="M260.951 201.955L259.01 201.954L259.009 204.405L260.951 204.405L260.951 201.955Z" fill="#9E9E9E"/>
<path d="M262.892 201.955L260.951 201.955L260.951 204.405L262.892 204.406L262.892 201.955Z" fill="#9E9E9E"/>
<path d="M266.775 201.955L264.834 201.955L264.833 204.406L266.775 204.406L266.775 201.955Z" fill="#9E9E9E"/>
<path d="M274.429 201.956L272.488 201.956L272.488 204.407L274.429 204.407L274.429 201.956Z" fill="#9E9E9E"/>
<path d="M276.371 201.957L274.429 201.956L274.429 204.407L276.37 204.407L276.371 201.957Z" fill="#9E9E9E"/>
<path d="M251.362 143.451L249.366 143.451L249.358 204.441L251.355 204.442L251.362 143.451Z" fill="#9E9E9E"/>
<path d="M287.842 189.704L285.901 189.704L285.901 192.155L287.842 192.155L287.842 189.704Z" fill="#9E9E9E"/>
<path d="M291.668 201.958L289.727 201.958L289.727 204.409L291.668 204.409L291.668 201.958Z" fill="#9E9E9E"/>
<path d="M287.842 197.056L285.9 197.056L285.9 199.507L287.841 199.507L287.842 197.056Z" fill="#9E9E9E"/>
<path d="M285.9 201.958L283.958 201.957L283.958 204.408L285.899 204.408L285.9 201.958Z" fill="#9E9E9E"/>
<path d="M287.841 199.507L285.9 199.507L285.9 201.958L287.841 201.958L287.841 199.507Z" fill="#9E9E9E"/>
<path d="M287.841 201.958L285.9 201.958L285.899 204.408L287.841 204.409L287.841 201.958Z" fill="#9E9E9E"/>
<path d="M314.748 150.607L312.807 150.606L312.807 153.057L314.748 153.057L314.748 150.607Z" fill="#9E9E9E"/>
<path d="M293.616 143.252L291.675 143.252L291.675 145.703L293.616 145.703L293.616 143.252Z" fill="#9E9E9E"/>
<path d="M289.734 143.252L287.792 143.251L287.792 145.702L289.733 145.702L289.734 143.252Z" fill="#9E9E9E"/>
<path d="M291.675 143.252L289.734 143.252L289.733 145.702L291.675 145.703L291.675 143.252Z" fill="#9E9E9E"/>
<path d="M297.443 143.252L295.502 143.252L295.502 145.703L297.443 145.703L297.443 143.252Z" fill="#9E9E9E"/>
<path d="M299.385 143.253L297.443 143.252L297.443 145.703L299.385 145.703L299.385 143.253Z" fill="#9E9E9E"/>
<path d="M316.69 143.255L314.749 143.254L314.749 145.705L316.69 145.705L316.69 143.255Z" fill="#9E9E9E"/>
<path d="M314.749 145.705L312.807 145.705L312.807 148.156L314.748 148.156L314.749 145.705Z" fill="#9E9E9E"/>
<path d="M299.385 145.703L297.443 145.703L297.443 148.154L299.384 148.154L299.385 145.703Z" fill="#9E9E9E"/>
<path d="M301.326 145.704L299.385 145.703L299.384 148.154L301.325 148.154L301.326 145.704Z" fill="#9E9E9E"/>
<path d="M303.212 145.704L301.27 145.704L301.27 148.154L303.211 148.155L303.212 145.704Z" fill="#9E9E9E"/>
<path d="M305.153 145.704L303.212 145.704L303.211 148.155L305.153 148.155L305.153 145.704Z" fill="#9E9E9E"/>
<path d="M308.98 145.705L307.039 145.704L307.039 148.155L308.98 148.155L308.98 145.705Z" fill="#9E9E9E"/>
<path d="M308.981 143.254L307.039 143.254L307.039 145.704L308.98 145.705L308.981 143.254Z" fill="#9E9E9E"/>
<path d="M295.502 148.154L293.56 148.153L293.56 150.604L295.501 150.604L295.502 148.154Z" fill="#9E9E9E"/>
<path d="M299.384 148.154L297.443 148.154L297.443 150.605L299.384 150.605L299.384 148.154Z" fill="#9E9E9E"/>
<path d="M303.211 148.155L301.27 148.154L301.27 150.605L303.211 150.605L303.211 148.155Z" fill="#9E9E9E"/>
<path d="M307.094 148.155L305.153 148.155L305.152 150.606L307.094 150.606L307.094 148.155Z" fill="#9E9E9E"/>
<path d="M308.98 148.155L307.039 148.155L307.038 150.606L308.98 150.606L308.98 148.155Z" fill="#9E9E9E"/>
<path d="M316.69 148.156L314.748 148.156L314.748 150.607L316.69 150.607L316.69 148.156Z" fill="#9E9E9E"/>
<path d="M314.744 187.312L312.803 187.312L312.802 189.763L314.744 189.763L314.744 187.312Z" fill="#9E9E9E"/>
<path d="M316.686 179.96L314.745 179.96L314.744 182.411L316.686 182.411L316.686 179.96Z" fill="#9E9E9E"/>
<path d="M314.744 182.411L312.803 182.41L312.803 184.861L314.744 184.861L314.744 182.411Z" fill="#9E9E9E"/>
<path d="M316.686 184.862L314.744 184.861L314.744 187.312L316.685 187.312L316.686 184.862Z" fill="#9E9E9E"/>
<path d="M318.627 179.96L316.686 179.96L316.686 182.411L318.627 182.411L318.627 179.96Z" fill="#9E9E9E"/>
<path d="M320.514 172.664L318.573 172.664L318.572 175.115L320.514 175.115L320.514 172.664Z" fill="#9E9E9E"/>
<path d="M318.628 175.115L316.687 175.114L316.686 177.565L318.628 177.565L318.628 175.115Z" fill="#9E9E9E"/>
<path d="M320.514 177.51L318.572 177.51L318.572 179.96L320.513 179.961L320.514 177.51Z" fill="#9E9E9E"/>
<path d="M297.443 150.605L295.501 150.604L295.501 153.055L297.442 153.055L297.443 150.605Z" fill="#9E9E9E"/>
<path d="M293.616 148.153L291.674 148.153L291.674 150.604L293.615 150.604L293.616 148.153Z" fill="#9E9E9E"/>
<path d="M303.211 150.605L301.27 150.605L301.269 153.056L303.211 153.056L303.211 150.605Z" fill="#9E9E9E"/>
<path d="M307.094 150.606L305.152 150.606L305.152 153.056L307.093 153.057L307.094 150.606Z" fill="#9E9E9E"/>
<path d="M291.675 145.703L289.733 145.702L289.733 148.153L291.674 148.153L291.675 145.703Z" fill="#9E9E9E"/>
<path d="M297.442 153.055L295.501 153.055L295.501 155.506L297.442 155.506L297.442 153.055Z" fill="#9E9E9E"/>
<path d="M299.384 153.056L297.442 153.055L297.442 155.506L299.383 155.506L299.384 153.056Z" fill="#9E9E9E"/>
<path d="M301.325 153.056L299.384 153.056L299.383 155.506L301.325 155.507L301.325 153.056Z" fill="#9E9E9E"/>
<path d="M308.979 153.057L307.038 153.057L307.038 155.507L308.979 155.508L308.979 153.057Z" fill="#9E9E9E"/>
<path d="M291.674 152.943L289.733 152.943L289.732 155.394L291.674 155.394L291.674 152.943Z" fill="#9E9E9E"/>
<path d="M293.615 150.604L291.674 150.604L291.674 153.055L293.615 153.055L293.615 150.604Z" fill="#9E9E9E"/>
<path d="M299.383 155.506L297.442 155.506L297.442 157.957L299.383 157.957L299.383 155.506Z" fill="#9E9E9E"/>
<path d="M312.862 155.508L310.92 155.508L310.92 157.959L312.861 157.959L312.862 155.508Z" fill="#9E9E9E"/>
<path d="M285.907 143.251L283.965 143.251L283.965 145.702L285.906 145.702L285.907 143.251Z" fill="#9E9E9E"/>
<path d="M287.848 143.251L285.907 143.251L285.906 145.702L287.848 145.702L287.848 143.251Z" fill="#9E9E9E"/>
<path d="M287.848 145.702L285.906 145.702L285.906 148.153L287.847 148.153L287.848 145.702Z" fill="#9E9E9E"/>
<path d="M285.905 155.505L283.964 155.505L283.964 157.955L285.905 157.956L285.905 155.505Z" fill="#9E9E9E"/>
<path d="M287.847 152.943L285.905 152.943L285.905 155.393L287.846 155.394L287.847 152.943Z" fill="#9E9E9E"/>
<path d="M289.733 152.943L287.791 152.943L287.791 155.394L289.732 155.394L289.733 152.943Z" fill="#9E9E9E"/>
<path d="M293.615 157.957L291.673 157.956L291.673 160.407L293.614 160.407L293.615 157.957Z" fill="#9E9E9E"/>
<path d="M297.442 157.957L295.5 157.957L295.5 160.407L297.441 160.408L297.442 157.957Z" fill="#9E9E9E"/>
<path d="M301.324 157.957L299.383 157.957L299.383 160.408L301.324 160.408L301.324 157.957Z" fill="#9E9E9E"/>
<path d="M305.152 157.958L303.21 157.958L303.21 160.408L305.151 160.409L305.152 157.958Z" fill="#9E9E9E"/>
<path d="M312.861 160.354L310.92 160.354L310.92 162.804L312.861 162.805L312.861 160.354Z" fill="#9E9E9E"/>
<path d="M312.861 157.959L310.92 157.959L310.92 160.409L312.861 160.41L312.861 157.959Z" fill="#9E9E9E"/>
<path d="M293.614 160.352L291.673 160.351L291.673 162.802L293.614 162.802L293.614 160.352Z" fill="#9E9E9E"/>
<path d="M295.5 160.352L293.559 160.352L293.559 162.802L295.5 162.802L295.5 160.352Z" fill="#9E9E9E"/>
<path d="M301.324 160.352L299.383 160.352L299.383 162.803L301.324 162.803L301.324 160.352Z" fill="#9E9E9E"/>
<path d="M303.21 160.353L301.269 160.352L301.268 162.803L303.21 162.803L303.21 160.353Z" fill="#9E9E9E"/>
<path d="M285.904 162.801L283.963 162.801L283.963 165.252L285.904 165.252L285.904 162.801Z" fill="#9E9E9E"/>
<path d="M289.731 162.802L287.79 162.802L287.79 165.252L289.731 165.253L289.731 162.802Z" fill="#9E9E9E"/>
<path d="M295.5 162.802L293.559 162.802L293.558 165.253L295.5 165.253L295.5 162.802Z" fill="#9E9E9E"/>
<path d="M301.324 162.803L299.383 162.803L299.382 165.254L301.323 165.254L301.324 162.803Z" fill="#9E9E9E"/>
<path d="M305.151 162.804L303.21 162.803L303.209 165.254L305.151 165.254L305.151 162.804Z" fill="#9E9E9E"/>
<path d="M312.861 165.255L310.919 165.255L310.919 167.706L312.86 167.706L312.861 165.255Z" fill="#9E9E9E"/>
<path d="M312.861 162.805L310.92 162.804L310.919 165.255L312.861 165.255L312.861 162.805Z" fill="#9E9E9E"/>
<path d="M285.904 165.252L283.963 165.252L283.962 167.703L285.904 167.703L285.904 165.252Z" fill="#9E9E9E"/>
<path d="M287.845 165.252L285.904 165.252L285.904 167.703L287.845 167.703L287.845 165.252Z" fill="#9E9E9E"/>
<path d="M291.672 165.253L289.731 165.253L289.731 167.703L291.672 167.704L291.672 165.253Z" fill="#9E9E9E"/>
<path d="M297.441 165.254L295.5 165.253L295.499 167.704L297.441 167.704L297.441 165.254Z" fill="#9E9E9E"/>
<path d="M303.209 165.254L301.268 165.254L301.268 167.705L303.209 167.705L303.209 165.254Z" fill="#9E9E9E"/>
<path d="M305.151 165.254L303.209 165.254L303.209 167.705L305.15 167.705L305.151 165.254Z" fill="#9E9E9E"/>
<path d="M307.092 165.255L305.151 165.254L305.15 167.705L307.092 167.705L307.092 165.255Z" fill="#9E9E9E"/>
<path d="M310.919 165.255L308.978 165.255L308.978 167.706L310.919 167.706L310.919 165.255Z" fill="#9E9E9E"/>
<path d="M293.615 152.944L291.674 152.943L291.674 155.394L293.615 155.394L293.615 152.944Z" fill="#9E9E9E"/>
<path d="M285.904 167.703L283.962 167.703L283.962 170.153L285.903 170.154L285.904 167.703Z" fill="#9E9E9E"/>
<path d="M289.731 167.703L287.79 167.703L287.789 170.154L289.731 170.154L289.731 167.703Z" fill="#9E9E9E"/>
<path d="M291.672 167.704L289.731 167.703L289.731 170.154L291.672 170.154L291.672 167.704Z" fill="#9E9E9E"/>
<path d="M293.614 167.704L291.672 167.704L291.672 170.154L293.613 170.155L293.614 167.704Z" fill="#9E9E9E"/>
<path d="M295.499 167.704L293.558 167.704L293.558 170.155L295.499 170.155L295.499 167.704Z" fill="#9E9E9E"/>
<path d="M301.323 167.705L299.382 167.704L299.382 170.155L301.323 170.155L301.323 167.705Z" fill="#9E9E9E"/>
<path d="M307.092 167.705L305.15 167.705L305.15 170.156L307.091 170.156L307.092 167.705Z" fill="#9E9E9E"/>
<path d="M308.978 167.706L307.037 167.705L307.036 170.156L308.978 170.156L308.978 167.706Z" fill="#9E9E9E"/>
<path d="M312.86 167.706L310.919 167.706L310.919 170.157L312.86 170.157L312.86 167.706Z" fill="#9E9E9E"/>
<path d="M291.672 170.154L289.731 170.154L289.73 172.605L291.672 172.605L291.672 170.154Z" fill="#9E9E9E"/>
<path d="M293.613 170.155L291.672 170.154L291.672 172.605L293.613 172.605L293.613 170.155Z" fill="#9E9E9E"/>
<path d="M303.209 170.1L301.267 170.1L301.267 172.55L303.208 172.551L303.209 170.1Z" fill="#9E9E9E"/>
<path d="M289.73 172.605L287.789 172.605L287.789 175.055L289.73 175.056L289.73 172.605Z" fill="#9E9E9E"/>
<path d="M293.613 172.605L291.672 172.605L291.671 175.056L293.613 175.056L293.613 172.605Z" fill="#9E9E9E"/>
<path d="M295.499 172.605L293.557 172.605L293.557 175.056L295.499 175.056L295.499 172.605Z" fill="#9E9E9E"/>
<path d="M297.44 172.606L295.499 172.605L295.499 175.056L297.44 175.056L297.44 172.606Z" fill="#9E9E9E"/>
<path d="M287.847 150.492L285.906 150.492L285.905 152.943L287.847 152.943L287.847 150.492Z" fill="#9E9E9E"/>
<path d="M307.091 172.607L305.15 172.607L305.15 175.057L307.091 175.058L307.091 172.607Z" fill="#9E9E9E"/>
<path d="M312.86 172.607L310.919 172.607L310.918 175.058L312.86 175.058L312.86 172.607Z" fill="#9E9E9E"/>
<path d="M287.844 175.055L285.903 175.055L285.903 177.506L287.844 177.506L287.844 175.055Z" fill="#9E9E9E"/>
<path d="M291.671 175.056L289.73 175.056L289.73 177.506L291.671 177.507L291.671 175.056Z" fill="#9E9E9E"/>
<path d="M297.44 175.056L295.499 175.056L295.498 177.507L297.44 177.507L297.44 175.056Z" fill="#9E9E9E"/>
<path d="M301.322 175.057L299.381 175.057L299.381 177.507L301.322 177.508L301.322 175.057Z" fill="#9E9E9E"/>
<path d="M305.15 175.057L303.208 175.057L303.208 177.508L305.149 177.508L305.15 175.057Z" fill="#9E9E9E"/>
<path d="M307.091 175.058L305.15 175.057L305.149 177.508L307.091 177.508L307.091 175.058Z" fill="#9E9E9E"/>
<path d="M308.977 175.058L307.036 175.058L307.035 177.508L308.977 177.509L308.977 175.058Z" fill="#9E9E9E"/>
<path d="M310.918 175.058L308.977 175.058L308.977 177.509L310.918 177.509L310.918 175.058Z" fill="#9E9E9E"/>
<path d="M285.903 170.098L283.962 170.098L283.962 172.548L285.903 172.549L285.903 170.098Z" fill="#9E9E9E"/>
<path d="M285.903 177.506L283.961 177.506L283.961 179.956L285.902 179.957L285.903 177.506Z" fill="#9E9E9E"/>
<path d="M287.844 177.506L285.903 177.506L285.902 179.957L287.844 179.957L287.844 177.506Z" fill="#9E9E9E"/>
<path d="M289.73 177.506L287.788 177.506L287.788 179.957L289.729 179.957L289.73 177.506Z" fill="#9E9E9E"/>
<path d="M291.671 177.507L289.73 177.506L289.729 179.957L291.671 179.957L291.671 177.507Z" fill="#9E9E9E"/>
<path d="M295.498 177.507L293.557 177.507L293.557 179.958L295.498 179.958L295.498 177.507Z" fill="#9E9E9E"/>
<path d="M305.149 177.508L303.208 177.508L303.208 179.959L305.149 179.959L305.149 177.508Z" fill="#9E9E9E"/>
<path d="M307.091 177.508L305.149 177.508L305.149 179.959L307.09 179.959L307.091 177.508Z" fill="#9E9E9E"/>
<path d="M310.918 177.509L308.977 177.509L308.976 179.959L310.918 179.96L310.918 177.509Z" fill="#9E9E9E"/>
<path d="M312.859 177.509L310.918 177.509L310.918 179.96L312.859 179.96L312.859 177.509Z" fill="#9E9E9E"/>
<path d="M287.846 157.232L285.905 157.231L285.905 159.682L287.846 159.682L287.846 157.232Z" fill="#9E9E9E"/>
<path d="M287.844 179.957L285.902 179.957L285.902 182.407L287.843 182.408L287.844 179.957Z" fill="#9E9E9E"/>
<path d="M291.671 179.957L289.729 179.957L289.729 182.408L291.67 182.408L291.671 179.957Z" fill="#9E9E9E"/>
<path d="M295.498 179.958L293.557 179.958L293.556 182.408L295.498 182.408L295.498 179.958Z" fill="#9E9E9E"/>
<path d="M301.322 179.958L299.38 179.958L299.38 182.409L301.322 182.409L301.322 179.958Z" fill="#9E9E9E"/>
<path d="M305.149 179.959L303.208 179.959L303.207 182.409L305.149 182.41L305.149 179.959Z" fill="#9E9E9E"/>
<path d="M308.976 179.959L307.035 179.959L307.035 182.41L308.976 182.41L308.976 179.959Z" fill="#9E9E9E"/>
<path d="M310.918 179.96L308.976 179.959L308.976 182.41L310.917 182.41L310.918 179.96Z" fill="#9E9E9E"/>
<path d="M285.902 182.407L283.961 182.407L283.96 184.858L285.902 184.858L285.902 182.407Z" fill="#9E9E9E"/>
<path d="M289.729 182.408L287.788 182.408L287.788 184.858L289.729 184.858L289.729 182.408Z" fill="#9E9E9E"/>
<path d="M291.67 182.408L289.729 182.408L289.729 184.858L291.67 184.859L291.67 182.408Z" fill="#9E9E9E"/>
<path d="M297.439 182.409L295.498 182.408L295.497 184.859L297.439 184.859L297.439 182.409Z" fill="#9E9E9E"/>
<path d="M299.38 182.409L297.439 182.409L297.439 184.859L299.38 184.86L299.38 182.409Z" fill="#9E9E9E"/>
<path d="M301.322 182.409L299.38 182.409L299.38 184.86L301.321 184.86L301.322 182.409Z" fill="#9E9E9E"/>
<path d="M303.207 182.409L301.266 182.409L301.266 184.86L303.207 184.86L303.207 182.409Z" fill="#9E9E9E"/>
<path d="M307.09 182.41L305.149 182.41L305.148 184.86L307.09 184.861L307.09 182.41Z" fill="#9E9E9E"/>
<path d="M308.976 182.41L307.035 182.41L307.034 184.861L308.976 184.861L308.976 182.41Z" fill="#9E9E9E"/>
<path d="M310.917 182.41L308.976 182.41L308.976 184.861L310.917 184.861L310.917 182.41Z" fill="#9E9E9E"/>
<path d="M293.612 184.803L291.67 184.803L291.67 187.254L293.611 187.254L293.612 184.803Z" fill="#9E9E9E"/>
<path d="M295.497 184.803L293.556 184.803L293.556 187.254L295.497 187.254L295.497 184.803Z" fill="#9E9E9E"/>
<path d="M299.38 184.804L297.439 184.804L297.438 187.254L299.38 187.255L299.38 184.804Z" fill="#9E9E9E"/>
<path d="M291.67 184.803L289.729 184.803L289.729 187.254L291.67 187.254L291.67 184.803Z" fill="#9E9E9E"/>
<path d="M289.729 187.254L287.787 187.253L287.787 189.704L289.728 189.704L289.729 187.254Z" fill="#9E9E9E"/>
<path d="M289.728 189.704L287.787 189.704L287.787 192.155L289.728 192.155L289.728 189.704Z" fill="#9E9E9E"/>
<path d="M297.438 187.254L295.497 187.254L295.497 189.705L297.438 189.705L297.438 187.254Z" fill="#9E9E9E"/>
<path d="M301.321 187.255L299.38 187.255L299.379 189.705L301.321 189.706L301.321 187.255Z" fill="#9E9E9E"/>
<path d="M307.09 184.805L305.148 184.805L305.148 187.255L307.089 187.256L307.09 184.805Z" fill="#9E9E9E"/>
<path d="M310.916 189.707L308.975 189.707L308.975 192.157L310.916 192.158L310.916 189.707Z" fill="#9E9E9E"/>
<path d="M312.858 187.256L310.917 187.256L310.916 189.707L312.858 189.707L312.858 187.256Z" fill="#9E9E9E"/>
<path d="M299.379 189.705L297.438 189.705L297.438 192.156L299.379 192.156L299.379 189.705Z" fill="#9E9E9E"/>
<path d="M307.089 189.706L305.148 189.706L305.148 192.157L307.089 192.157L307.089 189.706Z" fill="#9E9E9E"/>
<path d="M308.975 189.707L307.034 189.706L307.034 192.157L308.975 192.157L308.975 189.707Z" fill="#9E9E9E"/>
<path d="M293.611 187.254L291.67 187.254L291.67 189.705L293.611 189.705L293.611 187.254Z" fill="#9E9E9E"/>
<path d="M293.611 192.155L291.669 192.155L291.669 194.606L293.61 194.606L293.611 192.155Z" fill="#9E9E9E"/>
<path d="M297.438 192.156L295.496 192.156L295.496 194.606L297.437 194.607L297.438 192.156Z" fill="#9E9E9E"/>
<path d="M299.379 192.156L297.438 192.156L297.437 194.607L299.379 194.607L299.379 192.156Z" fill="#9E9E9E"/>
<path d="M312.856 201.961L310.915 201.961L310.915 204.411L312.856 204.412L312.856 201.961Z" fill="#9E9E9E"/>
<path d="M305.148 192.157L303.206 192.157L303.206 194.607L305.147 194.608L305.148 192.157Z" fill="#9E9E9E"/>
<path d="M307.089 192.157L305.148 192.157L305.147 194.608L307.088 194.608L307.089 192.157Z" fill="#9E9E9E"/>
<path d="M308.975 192.157L307.034 192.157L307.033 194.608L308.975 194.608L308.975 192.157Z" fill="#9E9E9E"/>
<path d="M310.916 192.158L308.975 192.157L308.975 194.608L310.916 194.608L310.916 192.158Z" fill="#9E9E9E"/>
<path d="M312.858 192.158L310.916 192.158L310.916 194.608L312.857 194.608L312.858 192.158Z" fill="#9E9E9E"/>
<path d="M285.902 184.802L283.96 184.802L283.96 187.253L285.901 187.253L285.902 184.802Z" fill="#9E9E9E"/>
<path d="M293.61 194.606L291.669 194.606L291.669 197.057L293.61 197.057L293.61 194.606Z" fill="#9E9E9E"/>
<path d="M295.496 194.606L293.555 194.606L293.555 197.057L295.496 197.057L295.496 194.606Z" fill="#9E9E9E"/>
<path d="M303.206 192.157L301.265 192.156L301.265 194.607L303.206 194.607L303.206 192.157Z" fill="#9E9E9E"/>
<path d="M303.207 184.804L301.266 184.804L301.266 187.255L303.207 187.255L303.207 184.804Z" fill="#9E9E9E"/>
<path d="M312.857 194.608L310.916 194.608L310.916 197.059L312.857 197.059L312.857 194.608Z" fill="#9E9E9E"/>
<path d="M310.916 197.059L308.974 197.059L308.974 199.51L310.915 199.51L310.916 197.059Z" fill="#9E9E9E"/>
<path d="M312.858 184.806L310.917 184.805L310.917 187.256L312.858 187.256L312.858 184.806Z" fill="#9E9E9E"/>
<path d="M312.859 182.41L310.917 182.41L310.917 184.861L312.858 184.861L312.859 182.41Z" fill="#9E9E9E"/>
<path d="M295.496 197.057L293.555 197.057L293.554 199.508L295.496 199.508L295.496 197.057Z" fill="#9E9E9E"/>
<path d="M318.627 187.313L316.685 187.312L316.685 189.763L318.626 189.763L318.627 187.313Z" fill="#9E9E9E"/>
<path d="M318.626 189.763L316.685 189.763L316.685 192.214L318.626 192.214L318.626 189.763Z" fill="#9E9E9E"/>
<path d="M320.512 189.764L318.571 189.763L318.57 192.214L320.512 192.214L320.512 189.764Z" fill="#9E9E9E"/>
<path d="M320.512 192.214L318.57 192.214L318.57 194.665L320.511 194.665L320.512 192.214Z" fill="#9E9E9E"/>
<path d="M320.511 194.665L318.57 194.665L318.57 197.116L320.511 197.116L320.511 194.665Z" fill="#9E9E9E"/>
<path d="M299.379 197.058L297.437 197.057L297.437 199.508L299.378 199.508L299.379 197.058Z" fill="#9E9E9E"/>
<path d="M303.206 197.058L301.264 197.058L301.264 199.509L303.205 199.509L303.206 197.058Z" fill="#9E9E9E"/>
<path d="M307.088 197.059L305.147 197.058L305.147 199.509L307.088 199.509L307.088 197.059Z" fill="#9E9E9E"/>
<path d="M312.857 197.059L310.916 197.059L310.915 199.51L312.857 199.51L312.857 197.059Z" fill="#9E9E9E"/>
<path d="M293.61 199.508L291.668 199.508L291.668 201.958L293.61 201.958L293.61 199.508Z" fill="#9E9E9E"/>
<path d="M297.437 199.508L295.496 199.508L295.495 201.959L297.437 201.959L297.437 199.508Z" fill="#9E9E9E"/>
<path d="M299.378 199.508L297.437 199.508L297.437 201.959L299.378 201.959L299.378 199.508Z" fill="#9E9E9E"/>
<path d="M305.147 199.509L303.205 199.509L303.205 201.96L305.146 201.96L305.147 199.509Z" fill="#9E9E9E"/>
<path d="M307.088 199.509L305.147 199.509L305.146 201.96L307.088 201.96L307.088 199.509Z" fill="#9E9E9E"/>
<path d="M289.727 201.958L287.786 201.958L287.785 204.409L289.727 204.409L289.727 201.958Z" fill="#9E9E9E"/>
<path d="M293.61 201.958L291.668 201.958L291.668 204.409L293.609 204.409L293.61 201.958Z" fill="#9E9E9E"/>
<path d="M295.495 201.959L293.554 201.959L293.554 204.409L295.495 204.409L295.495 201.959Z" fill="#9E9E9E"/>
<path d="M297.437 201.959L295.495 201.959L295.495 204.409L297.436 204.41L297.437 201.959Z" fill="#9E9E9E"/>
<path d="M301.319 201.959L299.378 201.959L299.378 204.41L301.319 204.41L301.319 201.959Z" fill="#9E9E9E"/>
<path d="M308.974 201.96L307.032 201.96L307.032 204.411L308.974 204.411L308.974 201.96Z" fill="#9E9E9E"/>
<path d="M310.915 201.961L308.974 201.96L308.974 204.411L310.915 204.411L310.915 201.961Z" fill="#9E9E9E"/>
<path d="M285.907 143.456L283.91 143.455L283.903 204.445L285.899 204.446L285.907 143.456Z" fill="#9E9E9E"/>
<path opacity="0.039" d="M24.5145 244.719L337.344 244.756C356.757 245.148 362.582 231.614 361.863 220.14L361.863 216.965C360.975 217.578 359.755 219.36 354.929 221.977C335.182 232.892 292.085 232.887 284.541 233.108C212.657 235.217 134.007 224.068 74.0543 172.205C16.7635 122.626 5.8959 90.5426 0.0234375 31L0.00137333 220.041C-0.000219402 233.688 10.9808 244.717 24.5145 244.719Z" fill="#052A51"/>
<path d="M46.5555 24.6484L99.2878 24.2033C101.857 24.1817 104.404 24.6667 106.785 25.6306C109.166 26.5945 111.333 28.0183 113.161 29.8204C114.99 31.6226 116.445 33.7676 117.442 36.1324C118.44 38.4973 118.96 41.0356 118.973 43.6017L119.508 108.826C119.53 111.392 119.044 113.937 118.079 116.315C117.115 118.693 115.69 120.858 113.886 122.685C112.082 124.512 109.935 125.965 107.568 126.962C105.201 127.958 102.66 128.478 100.092 128.492L47.3594 128.937C44.7907 128.959 42.2428 128.474 39.862 127.511C37.4811 126.547 35.3141 125.123 33.4851 123.322C31.6561 121.52 30.2011 119.375 29.2035 117.01C28.2059 114.645 27.6853 112.107 27.6716 109.541L27.137 44.3135C27.1085 39.1355 29.1367 34.1574 32.7769 30.471C36.4171 26.7845 41.3721 24.6906 46.5555 24.6484Z" fill="#F8F8F8"/>
<path d="M118.171 123.864C118.171 123.864 107.66 120.394 103.741 119.594C99.8222 118.795 86.6388 117.372 86.6388 117.372V110.693C90.3771 108.21 93.4137 104.809 95.4572 100.816C96.5602 97.4162 97.3942 93.935 97.9514 90.4047C98.6699 90.4946 99.3993 90.43 100.091 90.2151C100.782 90.0002 101.419 89.6401 101.96 89.1588C102.161 88.8914 102.312 88.5901 102.405 88.2692C102.681 87.5046 102.769 86.6849 102.66 85.8794C102.552 85.0739 102.25 84.3064 101.782 83.642C101.623 83.3657 101.411 83.1237 101.158 82.9302C100.204 82.3246 99.0789 82.0438 97.9514 82.1294C97.9514 82.1294 98.1271 74.1209 97.9514 71.5427C97.3365 66.7395 96.0783 62.0406 94.2106 57.5722C94.2106 57.5722 91.6273 53.1228 90.5588 51.7881C89.4898 50.4533 88.229 49.2839 86.8174 48.3178C85.8378 47.8727 83.8781 47.6949 82.898 46.8942C81.8288 46.0045 80.2257 42.267 78.7994 41.2885C76.3051 39.5975 69.892 39.687 66.7742 40.1315C63.1792 40.8089 59.738 42.1358 56.6197 44.0469C54.472 46.0094 52.6394 48.2903 51.1861 50.8095C49.4916 54.6945 48.3523 58.7982 47.8019 63.0001C47.2673 67.894 47.3563 82.5763 47.3563 82.5763C46.3819 82.8741 45.5281 83.4749 44.9192 84.2912C44.3104 85.1075 43.9784 86.0967 43.9715 87.1146C43.9469 87.7138 44.044 88.3118 44.2568 88.8726C44.4697 89.4334 44.7939 89.9453 45.21 90.3776C45.6262 90.8099 46.1255 91.1536 46.6781 91.3881C47.2307 91.6225 47.8251 91.7428 48.4254 91.7418H48.6011C48.6011 91.7418 49.9372 99.3052 52.5205 103.132C54.7224 106.06 57.4398 108.563 60.5396 110.518V117.637C60.5396 117.637 48.1584 118.437 44.239 119.505C38.8305 120.92 33.6657 123.139 28.918 126.089V129.559L118.527 128.847L118.171 123.864Z" fill="#A9C2DE"/>
</svg>
